<svg xmlns="http://www.w3.org/2000/svg" width="40" height="40" viewBox="0 0 40 40">
    <path fill="#ffb700" fill-rule="evenodd" d="M8.353 18l2.284-12.942a2 2 0 0 1 2.403-1.605l6.526 1.45a2 2 0 0 0 .868 0l6.526-1.45a2 2 0 0 1 2.403 1.605L31.647 18H37v2H3v-2h5.353zm2.03 0h19.233L27.394 5.406l-6.526 1.45a4 4 0 0 1-1.736 0l-6.526-1.45L10.384 18zm11.7 13h-4.166A6.002 6.002 0 0 1 6 30a6 6 0 0 1 11.917-1h4.166A6.002 6.002 0 0 1 34 30a6 6 0 0 1-11.917 1zM12 34a4 4 0 1 0 0-8 4 4 0 0 0 0 8zm16 0a4 4 0 1 0 0-8 4 4 0 0 0 0 8z"/>
</svg>
