<svg xmlns="http://www.w3.org/2000/svg" width="40" height="40" viewBox="0 0 40 40">
    <path fill="#ffb700" fill-rule="evenodd" d="M12.877 19.981l-1.593 1.565c-.616.62-1.17.9-1.693.9-1.078 0-1.91-1.118-1.91-2.918V.745h-3.08v18.783c0 3.943 2.403 6.085 5.02 6.085 1.325 0 2.71-.621 3.88-1.8l1.566-1.558c.103.077.208.15.313.222 0 1.335-.215 2.546-2.032 3.353l-4.65 2.111C3.43 30.331 3.061 31.232 3.061 38h33.876c0-6.768-.37-7.668-5.635-10.059l-4.65-2.11c-1.818-.808-2.033-2.019-2.033-3.354 2.802-1.894 4.927-5.681 4.927-11.363 0-13.94-19.094-13.94-19.094 0 0 3.805.953 6.76 2.424 8.867zm.348-8.4c0-2.36 1.786-3.85 4.62-3.85h4.31c2.834 0 4.62 1.49 4.62 3.85 0 2.39-1.786 3.91-4.62 3.91h-4.31c-2.834 0-4.62-1.52-4.62-3.91z"/>
</svg>
