<svg xmlns="http://www.w3.org/2000/svg" width="40" height="40" viewBox="0 0 40 40">
    <path fill="#ffb700" fill-rule="evenodd" d="M34.932 13.18c4.002 1.277 5.403 5.009 5.002 7.955-.4 3.142-2.9 6.58-7.503 6.58h-1.7c.2-.59.3-1.277.3-1.964h1.3c3.401 0 5.302-2.456 5.602-4.813.4-2.455-.8-5.205-4.101-6.088l-.6-.197-.1-.59a5.345 5.345 0 0 0-3.402-4.222c-1.801-.687-3.802-.491-5.403.687l-1.1.786-.4-1.277c-1.3-3.731-4.402-5.205-7.304-5.205-.7 0-1.4 0-2.1.197-3.402.786-6.603 3.732-5.903 8.544l.1.982-1 .196c-3.502.59-4.803 3.34-4.603 5.893.2 2.553 2.001 5.107 5.603 5.107h1.4c0 .687.1 1.374.3 1.964h-1.7c-4.802 0-7.303-3.536-7.603-6.875-.2-3.044 1.4-6.678 5.402-7.758-.3-5.402 3.602-8.937 7.503-9.82 3.902-.885 8.904.392 11.205 5.106 1.901-.982 4.202-1.08 6.303-.295 2.301.884 3.902 2.848 4.502 5.107zM26.4 20c1.4 1.8 1.9 4.2 1.5 6.5-.5 2.3-1.7 4.2-3.6 5.4-1 .6-2.1 1-3.2 1.2l1.2 1.2c.4.4.4 1 0 1.4-.2.2-.4.3-.7.3-.2 0-.5-.1-.7-.3l-3.6-3.6 3.3-3.7c.4-.4 1-.5 1.4-.1.4.4.5 1 .1 1.4l-1.3 1.5c.8-.1 1.7-.4 2.4-.9 1.4-1 2.4-2.4 2.7-4.1.3-1.8-.1-3.6-1.1-5l1.6-1.2zm-7.2-5.7l3.5 3.3-3.5 3.7c-.2.2-.4.3-.7.3-.3 0-.5-.1-.7-.3-.4-.4-.4-1 0-1.4l1.3-1.3c-.8.1-1.6.4-2.3.9-1.4 1-2.4 2.4-2.7 4.1-.3 1.9.2 3.8 1.3 5.2l-1.6 1.3c-1.5-1.8-2.1-4.3-1.7-6.8.5-2.3 1.7-4.2 3.6-5.4 1-.6 2.1-1 3.2-1.2l-1.1-1c-.4-.4-.4-1 0-1.4.4-.4 1-.4 1.4 0z"/>
</svg>
