<svg xmlns="http://www.w3.org/2000/svg" width="40" height="40" viewBox="0 0 40 40">
    <path fill="#ffb700" fill-rule="evenodd" d="M15.939 5.506c3.924 3.59 6.803 3.848 10.311 3.68.156.66.24 1.385.24 2.173 0 12.52-12.98 12.46-12.98 0 0-2.697.992-4.648 2.429-5.853zM6.09 38H37c0-6.706-.37-7.598-5.656-9.967l-4.668-2.092c-1.815-.808-2.043-1.984-2.053-3.329 2.834-1.879 4.959-5.63 4.959-11.253 0-13.812-19.164-13.812-19.164 0 0 5.623 2.125 9.374 4.959 11.253-.01 1.345-.238 2.52-2.053 3.329l-4.668 2.092C3.371 30.402 3 31.293 3 38h3.09zm11.616-11.76c.455-.633.742-1.4.747-2.362a8.165 8.165 0 0 0 3.092 0c.005.962.292 1.73.747 2.361-1.48.761-3.106.761-4.586 0z"/>
</svg>
