<svg xmlns="http://www.w3.org/2000/svg" width="33" height="33" viewBox="0 0 33 33">
    <path fill="#080808" fill-rule="evenodd" d="M2 9.663v17.432c0 .503.397.905.879.905H30.12a.892.892 0 0 0 .879-.905v-16.19a.892.892 0 0 0-.879-.905H3.5c-.537 0-1.045-.12-1.5-.337zM23.173 8H28V6a1 1 0 0 0-1-1H3.5a1.5 1.5 0 0 0 0 3h19.673zM30 8h.121C31.714 8 33 9.304 33 10.905v16.19C33 28.696 31.714 30 30.121 30H2.88C1.286 30 0 28.696 0 27.095V6h.035A3.5 3.5 0 0 1 3.5 3H27a3 3 0 0 1 3 3v2zm-5 13a2 2 0 1 1 0-4 2 2 0 0 1 0 4z"/>
</svg>
