<?xml version="1.0" standalone="no"?>
<!DOCTYPE svg PUBLIC "-//W3C//DTD SVG 1.1//EN" "http://www.w3.org/Graphics/SVG/1.1/DTD/svg11.dtd" >
<svg xmlns="http://www.w3.org/2000/svg" xmlns:xlink="http://www.w3.org/1999/xlink" version="1.1">
<metadata></metadata>
<defs>
<font id="geometriabold" horiz-adv-x="1281" >
<font-face units-per-em="2048" ascent="1591" descent="-457" />
<missing-glyph horiz-adv-x="544" />
<glyph unicode="&#xfb01;" horiz-adv-x="1456" d="M1295 0h-301v811h-466v-811h-300v811h-190v252h190v100q0 162 93 257.5t267 95.5q156 0 270 -44v-243q-93 37 -183 37q-147 0 -147 -144v-59h767v-1063zM965 1344q0 76 52 128.5t127 52.5t127 -52.5t52 -128.5q0 -75 -52 -127t-127 -52t-127 52t-52 127z" />
<glyph unicode="&#xfb02;" horiz-adv-x="1524" d="M1278 -28q-50 0 -92.5 10t-78 32.5t-60.5 56t-39 83.5t-14 112v545h-466v-811h-300v811h-190v252h190v100q0 162 93 257.5t267 95.5q156 0 270 -44v-243q-93 37 -183 37q-147 0 -147 -144v-59h466v428h301v-1146q0 -107 95 -107q45 0 77 20v-248q-75 -38 -189 -38z" />
<glyph unicode="&#xfb03;" horiz-adv-x="2212" d="M1295 811v-811h-301v811h-466v-811h-300v811h-190v252h190v100q0 162 93 257.5t267 95.5q156 0 270 -44v-243q-93 37 -183 37q-147 0 -147 -144v-59h466v100q0 162 94 257.5t267 95.5q156 0 271 -44v-243q-94 37 -185 37q-146 0 -146 -144v-59h766v-1063h-299v811h-467z M1732 1344q0 76 51.5 128.5t127 52.5t127 -52.5t51.5 -128.5q0 -75 -52 -127t-127 -52q-49 0 -90 23.5t-64.5 65t-23.5 90.5z" />
<glyph unicode="&#xfb04;" horiz-adv-x="2291" d="M1295 811v-811h-301v811h-466v-811h-300v811h-190v252h190v100q0 162 93 257.5t267 95.5q156 0 270 -44v-243q-93 37 -183 37q-147 0 -147 -144v-59h466v100q0 162 94 257.5t267 95.5q156 0 271 -44v-243q-94 37 -185 37q-146 0 -146 -144v-59h467v428h299v-1146 q0 -107 97 -107q43 0 76 20v-248q-76 -38 -189 -38q-64 0 -114.5 16.5t-89 50.5t-59 91.5t-20.5 135.5v545h-467z" />
<glyph horiz-adv-x="0" />
<glyph horiz-adv-x="682" />
<glyph unicode=" "  horiz-adv-x="544" />
<glyph unicode="&#x09;" horiz-adv-x="544" />
<glyph unicode="&#xa0;" horiz-adv-x="544" />
<glyph unicode="!" horiz-adv-x="708" d="M171 162q0 78 54 131.5t131 53.5q76 0 129.5 -53.5t53.5 -131.5q0 -77 -53.5 -131.5t-129.5 -54.5q-50 0 -93 25t-67.5 68t-24.5 93zM471 496h-233l-65 995h366z" />
<glyph unicode="&#x22;" horiz-adv-x="832" d="M332 858h-257v633h257v-633zM762 858h-260v633h260v-633z" />
<glyph unicode="#" horiz-adv-x="1648" d="M547 0h-234l55 356h-293l35 232h295l51 315h-294l34 233h296l57 355h235l-58 -355h320l57 355h232l-55 -355h297l-39 -233h-294l-51 -315h296l-36 -232h-297l-57 -356h-232l58 356h-322zM691 903l-52 -315h320l51 315h-319z" />
<glyph unicode="$" horiz-adv-x="1339" d="M801 -232h-277v211q-258 28 -432 151v319q92 -80 247 -140q155 -57 307 -57q82 0 146 19t102.5 58.5t38.5 94.5q0 41 -20 73t-57 50q-37 22 -85 39l-51 17l-119 36l-111 36q-11 3 -100 36q-65 24 -96 45q-113 78 -141 130q-51 100 -51 209q0 169 111 276.5t311 138.5v213 h277v-211q171 -21 351 -115v-298q-226 141 -483 141q-254 0 -254 -147q0 -64 79 -103q52 -27 122 -45q87 -22 162 -46q106 -34 177 -68t146 -87q149 -106 149 -311q0 -178 -123 -297.5t-326 -152.5v-215z" />
<glyph unicode="%" horiz-adv-x="1742" d="M535 0h-216l891 1491h215zM1041 612q104 104 271 104t271 -104q106 -107 106 -260.5t-106 -259.5q-104 -104 -271 -104t-271 104q-106 106 -106 259.5t106 260.5zM1189 228q49 -49 123 -49q72 0 121 49t49 123.5t-49 123.5t-121 49q-74 0 -123 -49q-46 -49 -46 -123.5 t46 -123.5zM158 1400q104 104 270.5 104t270.5 -104q106 -106 106 -260t-106 -260q-105 -105 -270.5 -105t-270.5 105q-107 107 -107 260t107 260zM305 1016q49 -49 123 -49q72 0 121 49t49 123t-49 124q-50 49 -121 49q-73 0 -123 -49q-46 -50 -46 -124t46 -123z" />
<glyph unicode="&#x26;" horiz-adv-x="1599" d="M1093 1412v-288q-176 134 -349 134q-85 0 -140 -46t-55 -115q0 -36 20 -77q18 -35 39 -59.5t77 -80.5l374 -371q75 114 81 304h287q-10 -281 -164 -502l316 -311h-380l-124 118q-199 -148 -447 -148q-237 0 -394 126q-155 127 -155 353q0 153 77 267q80 113 176 160 q-78 104 -78 238q0 176 122 290q123 116 323 116q223 0 394 -108zM648 232q126 0 230 83l-374 368q-54 -25 -93 -87t-39 -134q0 -107 76.5 -168.5t199.5 -61.5z" />
<glyph unicode="'" horiz-adv-x="402" d="M332 858h-257v633h257v-633z" />
<glyph unicode="(" horiz-adv-x="825" d="M764 -439h-306q-307 386 -307 971q0 579 307 972h306q-338 -435 -338 -971.5t338 -971.5z" />
<glyph unicode=")" horiz-adv-x="825" d="M368 -439h-307q339 436 339 971.5t-339 971.5h307q307 -393 307 -972q0 -585 -307 -971z" />
<glyph unicode="*" horiz-adv-x="896" d="M537 701h-181l6 249l-213 -130l-92 158l220 119l-220 119l92 158l213 -132l-6 249h181l-7 -249l212 132l91 -158l-221 -119l221 -119l-91 -158l-212 130z" />
<glyph unicode="+" horiz-adv-x="1364" d="M817 164h-272v407h-405v268h405v409h272v-409h408v-268h-408v-407z" />
<glyph unicode="," horiz-adv-x="595" d="M260 -323h-248l184 644h322z" />
<glyph unicode="-" horiz-adv-x="1067" d="M862 456h-657v270h657v-270z" />
<glyph unicode="." horiz-adv-x="559" d="M281 -24q-78 0 -131.5 55t-53.5 133q0 77 53.5 130t131.5 53q77 0 131.5 -53.5t54.5 -129.5q0 -78 -55 -133t-131 -55z" />
<glyph unicode="/" horiz-adv-x="1134" d="M258 -298h-301l897 1985h300z" />
<glyph unicode="0" horiz-adv-x="1500" d="M752 -30q-199 0 -347 111q-146 108 -221.5 281.5t-75.5 383.5q0 206 73 378q77 180 227.5 288t343.5 108q291 0 466 -227q175 -224 175 -547q0 -324 -175 -548q-175 -228 -466 -228zM506 398q93 -140 246 -140t242 140q92 143 92 348t-92 345q-88 142 -242 142t-246 -142 q-91 -140 -91 -345t91 -348z" />
<glyph unicode="1" horiz-adv-x="829" d="M658 0h-300v1163l-315 -159v299l349 188h266v-1491z" />
<glyph unicode="2" horiz-adv-x="1230" d="M1136 0h-1061v224l439 398q148 136 206 221q60 86 60 181q0 96 -70.5 152.5t-185.5 56.5q-210 0 -402 -170v315q181 142 434 142q213 0 371 -125q157 -126 157 -330q0 -158 -70 -279q-65 -118 -245 -284l-255 -234h622v-268z" />
<glyph unicode="3" horiz-adv-x="1228" d="M537 -30q-263 0 -454 119v293q197 -137 437 -137q136 0 223.5 67.5t87.5 181.5q0 71 -36 126t-103.5 86t-156.5 31q-109 0 -212 -40v202l356 328h-549v264h941v-231l-336 -308q159 -28 281 -147t122 -311q0 -238 -173 -381t-428 -143z" />
<glyph unicode="4" horiz-adv-x="1364" d="M1095 0h-298v372h-748v222l743 897h303v-871h220v-248h-220v-372zM797 1106l-409 -486h409v486z" />
<glyph unicode="5" horiz-adv-x="1250" d="M524 -30q-234 0 -424 107v287q189 -119 412 -119q145 0 237 66t92 183q0 111 -90 179.5t-242 68.5q-174 0 -358 -65l99 814h796v-264h-571l-32 -254q66 15 143 15q247 0 402 -136q160 -138 160 -358q0 -247 -181 -386q-181 -138 -443 -138z" />
<glyph unicode="6" horiz-adv-x="1358" d="M711 -30q-280 0 -436.5 186t-156.5 513q0 134 26 257.5t81.5 232.5t135 189t192.5 126t248 46q192 0 337 -95v-277q-141 96 -303 96q-184 0 -290 -116q-104 -113 -117 -289q120 139 347 139q203 0 341 -132q136 -131 136 -350q0 -233 -155 -378q-154 -148 -386 -148z M693 234q113 0 183.5 71.5t70.5 184.5q0 108 -72 178.5t-182 70.5q-88 0 -165 -53t-109 -135q4 -100 38.5 -171.5t94.5 -108.5t141 -37z" />
<glyph unicode="7" horiz-adv-x="1207" d="M496 0h-325l609 1216h-705v275h1051v-237z" />
<glyph unicode="8" horiz-adv-x="1356" d="M996 795q126 -46 202 -145.5t76 -225.5q0 -211 -173 -332q-170 -122 -422 -122q-250 0 -423 122q-173 121 -173 332q0 126 76 225.5t201 145.5q-98 44 -153.5 126.5t-55.5 186.5q0 183 150 298q148 114 378 114q227 0 376 -114q150 -116 150 -298q0 -104 -55.5 -186.5 t-153.5 -126.5zM447 1077q0 -80 67 -132.5t165 -52.5t164 52.5t66 132.5q0 82 -66 135.5t-164 53.5t-165 -53.5t-67 -135.5zM957 443q0 47 -21 87t-57.5 69t-88.5 45t-111 16t-111 -16t-88.5 -45t-58 -69t-21.5 -87q0 -92 79.5 -153.5t199.5 -61.5t199 61.5t79 153.5z" />
<glyph unicode="9" horiz-adv-x="1358" d="M648 1520q280 0 437 -185t157 -512q0 -135 -26.5 -258.5t-82 -232.5t-134.5 -189t-192.5 -126.5t-248.5 -46.5q-192 0 -336 96v277q141 -95 302 -95q182 0 287 114q108 117 120 290q-120 -138 -348 -138q-206 0 -341 129q-136 130 -136 351q0 232 154 380 q156 146 388 146zM667 1256q-75 0 -133.5 -32t-90.5 -90t-32 -132q0 -109 72.5 -179.5t183.5 -70.5q88 0 164 53t108 136q-6 151 -78 233t-194 82z" />
<glyph unicode=":" horiz-adv-x="559" d="M281 679q-51 0 -94 25.5t-67 68.5t-24 94q0 77 53.5 130t131.5 53q77 0 131.5 -53t54.5 -130t-55 -132.5t-131 -55.5zM281 -24q-78 0 -131.5 55t-53.5 133q0 77 53.5 130t131.5 53q77 0 131.5 -53.5t54.5 -129.5q0 -78 -55 -133t-131 -55z" />
<glyph unicode=";" horiz-adv-x="606" d="M260 -323h-248l184 644h322zM343 679q-51 0 -93.5 25.5t-67 68.5t-24.5 94q0 77 53.5 130t131.5 53q77 0 131 -53t54 -130q0 -78 -54 -133t-131 -55z" />
<glyph unicode="&#x3c;" horiz-adv-x="1364" d="M1225 413v-291l-1085 439v282l1085 441v-292l-774 -289z" />
<glyph unicode="=" horiz-adv-x="1364" d="M1225 811h-1085v271h1085v-271zM1225 328h-1085v273h1085v-273z" />
<glyph unicode="&#x3e;" horiz-adv-x="1364" d="M1225 561l-1085 -439v291l774 290l-774 289v292l1085 -441v-282z" />
<glyph unicode="?" horiz-adv-x="1045" d="M603 496h-286v315q140 28 252 101q110 72 110 163q0 83 -67 127t-177 44q-182 0 -382 -120v269q184 125 431 125q210 0 355 -114q149 -111 149 -311q0 -157 -114 -268q-116 -112 -271 -160v-171zM467 -24q-78 0 -132 55t-54 133q0 77 54 130t132 53q77 0 131 -53t54 -130 q0 -78 -54.5 -133t-130.5 -55z" />
<glyph unicode="@" horiz-adv-x="2002" d="M1004 -345q-391 0 -659 264q-268 265 -268 669q0 395 270 662q271 270 657 270q393 0 657 -254q266 -257 266 -623q0 -243 -108 -385q-105 -143 -281 -143q-213 0 -305 153q-48 -70 -133 -116t-193 -46q-185 0 -306 136q-119 139 -119 341q0 201 119.5 339.5t301.5 138.5 q183 0 296 -139v113h258v-604q0 -214 147 -214q98 0 170 115q73 114 73 311q0 328 -235 567q-234 237 -608 237q-369 0 -608 -252q-238 -247 -238 -607q0 -364 238 -609q240 -249 608 -249q232 0 461 128v-84q-209 -119 -461 -119zM984 339q142 0 215 119v251 q-74 120 -215 120q-100 0 -165 -70.5t-65 -175t65 -174.5t165 -70z" />
<glyph unicode="A" horiz-adv-x="1639" d="M356 0h-322l639 1500h294l639 -1500h-326l-146 345h-632zM817 1116l-219 -518h437z" />
<glyph unicode="B" horiz-adv-x="1524" d="M914 0h-750v1491h700q208 0 330.5 -98.5t122.5 -274.5q0 -73 -26.5 -134t-68 -100t-94.5 -61q124 -25 214 -132q89 -107 89 -267q0 -188 -140 -306t-377 -118zM471 654v-390h385q114 0 178.5 50t64.5 144q0 93 -64.5 144.5t-178.5 51.5h-385zM471 1236v-329h344 q96 0 150.5 43t54.5 119q0 78 -54.5 122.5t-150.5 44.5h-344z" />
<glyph unicode="C" horiz-adv-x="1441" d="M920 -30q-347 0 -577 217q-230 221 -230 559q0 339 228 557q230 217 579 217q215 0 395 -93v-309q-174 115 -393 115q-211 0 -355 -138q-141 -137 -141 -349q0 -214 145 -352q142 -136 364 -136q245 0 409 130v-309q-183 -109 -424 -109z" />
<glyph unicode="D" horiz-adv-x="1652" d="M722 0h-558v1491h558q363 0 590.5 -209t227.5 -536q0 -330 -228 -539q-225 -207 -590 -207zM471 1216v-941h226q249 0 388.5 124t139.5 346.5t-139.5 346.5t-388.5 124h-226z" />
<glyph unicode="E" horiz-adv-x="1362" d="M1282 0h-1118v1491h1094v-275h-787v-287h635v-271h-635v-383h811v-275z" />
<glyph unicode="F" horiz-adv-x="1337" d="M471 0h-307v1491h1092v-275h-785v-302h606v-271h-606v-643z" />
<glyph unicode="G" horiz-adv-x="1632" d="M907 -30q-339 0 -566 217q-228 222 -228 559q0 339 228 557q227 217 577 217q259 0 448 -112v-302q-208 127 -427 127q-228 0 -370 -136q-143 -133 -143 -358q0 -221 138.5 -353t342.5 -132q195 0 300 98v512h307v-657q-96 -102 -256 -169q-166 -68 -351 -68z" />
<glyph unicode="H" horiz-adv-x="1614" d="M471 0h-307v1491h307v-558h673v558h305v-1491h-305v654h-673v-654z" />
<glyph unicode="I" horiz-adv-x="653" d="M479 0h-304v1491h304v-1491z" />
<glyph unicode="J" horiz-adv-x="1085" d="M417 -30q-231 0 -358 87v303q127 -102 295 -102q144 0 213 66.5t69 216.5v950h305v-1001q0 -115 -28 -205t-75.5 -148.5t-115 -96.5t-142.5 -54t-163 -16z" />
<glyph unicode="K" horiz-adv-x="1502" d="M471 0h-307v1491h307v-588l549 588h375l-633 -684l742 -807h-392l-641 688v-688z" />
<glyph unicode="L" horiz-adv-x="1283" d="M1227 0h-1063v1491h307v-1216h756v-275z" />
<glyph unicode="M" horiz-adv-x="1801" d="M471 0h-307v1491h305l432 -617l432 617h303v-1491h-303v1020l-343 -479h-170l-349 479v-1020z" />
<glyph unicode="N" horiz-adv-x="1642" d="M464 0h-300v1491h262l752 -954v954h298v-1491h-253l-759 959v-959z" />
<glyph unicode="O" horiz-adv-x="1771" d="M556 396q132 -138 330 -138q196 0 328 138.5t132 349.5t-132 349t-328 138q-198 0 -330 -138q-130 -136 -130 -349.5t130 -349.5zM113 746q0 327 219 549q219 225 554 225q332 0 551 -225q222 -225 222 -549q0 -323 -222 -550q-219 -226 -551 -226q-335 0 -554 226 q-219 224 -219 550z" />
<glyph unicode="P" horiz-adv-x="1402" d="M471 0h-307v1491h651q242 0 380 -125q140 -125 140 -325q0 -201 -140 -325q-138 -126 -380 -126h-344v-590zM471 1223v-371h324q110 0 172 48t62 137t-62 137.5t-172 48.5h-324z" />
<glyph unicode="Q" horiz-adv-x="1771" d="M848 -26q-319 12 -529 235q-206 218 -206 537q0 327 219 549q219 225 554 225q332 0 551 -225q222 -225 222 -549q0 -242 -127 -435q-126 -193 -339 -279q86 -109 228 -109q98 0 176 45v-258q-107 -49 -225 -49q-253 0 -524 313zM556 396q132 -138 330 -138 q196 0 328 138.5t132 349.5t-132 349t-328 138q-198 0 -330 -138q-130 -136 -130 -349.5t130 -349.5z" />
<glyph unicode="R" horiz-adv-x="1554" d="M471 0h-307v1491h690q239 0 375 -123q139 -123 139 -318q0 -148 -82.5 -258.5t-226.5 -155.5l459 -636h-355l-435 603h-257v-603zM471 1223v-363h366q105 0 163.5 47t58.5 134q0 85 -59 133.5t-163 48.5h-366z" />
<glyph unicode="S" horiz-adv-x="1339" d="M658 -30q-336 0 -566 160v319q92 -80 247 -140q155 -57 307 -57q82 0 146 19t102.5 58.5t38.5 94.5q0 41 -20 73t-57 50q-37 22 -85 39l-51 17l-119 36l-111 36q-11 3 -100 36q-65 24 -96 45q-113 78 -141 130q-51 100 -51 209q0 197 152 311q148 114 411 114t487 -123 v-298q-226 141 -483 141q-254 0 -254 -147q0 -64 79 -103q52 -27 122 -45q87 -22 162 -46q106 -34 177 -68t146 -87q149 -106 149 -311q0 -216 -168.5 -339.5t-423.5 -123.5z" />
<glyph unicode="T" horiz-adv-x="1378" d="M63 1216v275h1252v-275h-474v-1216h-306v1216h-472z" />
<glyph unicode="U" horiz-adv-x="1565" d="M782 -30q-280 0 -458.5 172.5t-178.5 483.5v865h304v-875q0 -87 24.5 -155.5t69 -112.5t105 -67t134.5 -23q153 0 243.5 92.5t90.5 265.5v875h307v-865q0 -312 -181 -484q-179 -172 -460 -172z" />
<glyph unicode="V" horiz-adv-x="1618" d="M955 -8h-290l-627 1499h338l435 -1074l437 1074h333z" />
<glyph unicode="W" horiz-adv-x="2289" d="M815 -8h-270l-500 1499h341l307 -1005l336 1010h239l338 -1010l307 1005h334l-503 -1499h-270l-326 994z" />
<glyph unicode="X" horiz-adv-x="1543" d="M102 1491h358l313 -445l318 445h354l-493 -686l580 -805h-359l-404 556l-403 -556h-354l582 803z" />
<glyph unicode="Y" horiz-adv-x="1482" d="M894 0h-304v669l-578 822h362l372 -530l372 530h352l-576 -816v-675z" />
<glyph unicode="Z" horiz-adv-x="1364" d="M1295 0h-1224v217l775 999h-740v275h1154v-215l-772 -1001h807v-275z" />
<glyph unicode="[" horiz-adv-x="913" d="M837 -439h-669v1943h669v-236h-396v-1471h396v-236z" />
<glyph unicode="\" horiz-adv-x="1132" d="M1178 -298h-300l-897 1985h300z" />
<glyph unicode="]" horiz-adv-x="913" d="M77 1504h669v-1943h-669v236h396v1471h-396v236z" />
<glyph unicode="^" horiz-adv-x="1171" d="M358 722h-285l370 849h285l371 -849h-284l-229 593z" />
<glyph unicode="_" horiz-adv-x="1372" d="M1366 -317h-1358v202h1358v-202z" />
<glyph unicode="`" horiz-adv-x="1109" d="M283 1538h365l202 -311h-260z" />
<glyph unicode="a" d="M1159 232q38 0 62 13v-219q-57 -45 -162 -45q-181 0 -242 137q-142 -146 -366 -146q-173 0 -282.5 97.5t-109.5 258.5q0 171 124 260q126 89 296 89q182 0 307 -65v31q0 200 -282 200q-170 0 -321 -89v252q161 85 394 85q230 0 366 -111q141 -113 141 -307v-360 q0 -81 75 -81zM786 313v106q-94 63 -221 63q-97 0 -153 -37t-56 -102q0 -68 51.5 -103t137.5 -35q159 0 241 108z" />
<glyph unicode="b" horiz-adv-x="1370" d="M797 -28q-230 0 -350 158v-130h-300v1491h300v-558q127 158 350 158q217 0 357 -162q143 -158 143 -397t-143 -400q-141 -160 -357 -160zM711 234q128 0 207 85q81 88 81 213q0 124 -81 212q-79 85 -207 85q-85 0 -155.5 -43.5t-108.5 -114.5v-277q25 -46 64 -82t91 -57 t109 -21z" />
<glyph unicode="c" horiz-adv-x="1098" d="M654 -28q-235 0 -406 154q-171 156 -171 408.5t171 402.5q174 154 410 154q174 0 315 -71v-256q-138 65 -270 65q-140 0 -236 -83q-95 -82 -95 -213.5t97 -215.5q96 -83 234 -83q163 0 287 73v-256q-149 -79 -336 -79z" />
<glyph unicode="d" horiz-adv-x="1372" d="M577 -28q-215 0 -360 160q-140 162 -140 400t140 397q144 162 360 162q223 0 350 -158v558h300v-1491h-300v130q-121 -158 -350 -158zM662 234q86 0 156.5 44.5t108.5 115.5v277q-25 46 -64 81.5t-91 56t-110 20.5q-127 0 -206 -85q-82 -88 -82 -212q0 -125 82 -213 q79 -85 206 -85z" />
<glyph unicode="e" horiz-adv-x="1219" d="M667 -28q-248 0 -419 154q-171 153 -171 406q0 238 153 397q153 162 400 162q230 0 369 -164t139 -399v-79h-764q12 -53 43 -95t77 -69.5t106 -42t130 -14.5q176 0 341 93v-240q-143 -109 -404 -109zM374 641h467q-3 59 -30 107t-77.5 77t-115.5 29q-101 0 -167 -59 t-77 -154z" />
<glyph unicode="f" horiz-adv-x="904" d="M528 811v-811h-300v811h-190v252h190v100q0 162 93 257.5t267 95.5q156 0 270 -44v-243q-93 37 -183 37q-147 0 -147 -144v-59h330v-252h-330z" />
<glyph unicode="g" horiz-adv-x="1358" d="M922 939v124h301v-939q0 -113 -35 -208t-95 -159.5t-139.5 -109.5t-166.5 -65.5t-180 -20.5q-263 0 -418 92v270q169 -102 386 -102q53 0 100 8t93 28.5t79.5 52t54 82.5t20.5 116v67q-125 -151 -351 -151q-218 0 -356 153q-138 154 -138 381q0 225 138 379t356 154 q225 0 351 -152zM658 283q58 0 110 19t91 51.5t63 74.5v255q-38 65 -108 105.5t-156 40.5q-82 0 -147 -35.5t-100 -97.5t-35 -140q0 -117 80 -195t202 -78z" />
<glyph unicode="h" horiz-adv-x="1315" d="M447 677v-677h-300v1491h300v-558q146 158 356 158q92 0 165 -30.5t122 -87t75 -138t26 -183.5v-652h-301v590q0 59 -15.5 104t-44 70.5t-64 38t-78.5 12.5q-69 0 -135.5 -39t-105.5 -99z" />
<glyph unicode="i" horiz-adv-x="624" d="M462 0h-300v1063h300v-1063zM132 1344q0 76 52 128.5t127 52.5t127 -52.5t52 -128.5q0 -75 -52 -127t-127 -52t-127 52t-52 127z" />
<glyph unicode="j" horiz-adv-x="624" d="M77 -439q-79 0 -138.5 11.5t-98.5 35.5v256q73 -41 160 -41q162 0 162 169v1071h300v-1101q0 -190 -102.5 -295.5t-282.5 -105.5zM130 1344q0 76 52 128.5t127 52.5t128 -52.5t53 -128.5q0 -75 -53 -127t-128 -52t-127 52t-52 127z" />
<glyph unicode="k" horiz-adv-x="1275" d="M447 0h-300v1491h300v-816l366 388h369l-462 -480l534 -583h-387l-420 458v-458z" />
<glyph unicode="l" horiz-adv-x="677" d="M431 -28q-64 0 -114.5 16.5t-89 50.5t-59.5 91.5t-21 135.5v1225h300v-1146q0 -107 96 -107q44 0 77 20v-248q-76 -38 -189 -38z" />
<glyph unicode="m" horiz-adv-x="1971" d="M447 0h-300v1063h300v-130q120 158 324 158q77 0 145.5 -25t115.5 -65.5t69 -91.5q55 80 154.5 131t211.5 51q175 0 277.5 -110.5t102.5 -315.5v-665h-301v596q0 219 -176 219q-68 0 -129.5 -40.5t-92.5 -103.5v-671h-300v596q0 219 -177 219q-65 0 -128 -40t-96 -100 v-675z" />
<glyph unicode="n" horiz-adv-x="1315" d="M447 677v-677h-300v1063h300v-128q144 156 356 156q92 0 165 -30.5t122 -87t75 -138t26 -183.5v-652h-301v590q0 59 -15.5 104t-44 70.5t-64 38t-78.5 12.5q-69 0 -135.5 -39t-105.5 -99z" />
<glyph unicode="o" horiz-adv-x="1331" d="M456 319q82 -85 211 -85t211 85q83 87 83 213q0 128 -83 212q-82 85 -211 85t-211 -85q-84 -84 -84 -212q0 -126 84 -213zM77 532q0 238 165 397q166 162 425 162t424 -162.5t165 -396.5q0 -238 -165 -400q-166 -160 -424 -160t-425 160q-165 162 -165 400z" />
<glyph unicode="p" horiz-adv-x="1370" d="M797 1091q217 0 357 -162q143 -158 143 -399q0 -237 -143 -398q-141 -160 -357 -160q-223 0 -350 158v-556h-300v1489h300v-130q120 158 350 158zM711 829q-85 0 -155.5 -44.5t-108.5 -115.5v-277q38 -71 108.5 -114.5t155.5 -43.5q128 0 207 85q81 88 81 211 q0 126 -81 214q-79 85 -207 85z" />
<glyph unicode="q" horiz-adv-x="1372" d="M577 1091q229 0 350 -158v130h300v-1489h-300v556q-127 -158 -350 -158q-215 0 -360 160q-140 162 -140 398q0 240 140 399q144 162 360 162zM662 829q-127 0 -206 -85q-82 -88 -82 -214q0 -123 82 -211q79 -85 206 -85q86 0 156.5 43.5t108.5 114.5v277q-25 46 -64 82 t-91 57t-110 21z" />
<glyph unicode="r" horiz-adv-x="900" d="M447 0h-300v1063h300v-179q51 87 149 145q106 62 221 62q26 0 35 -2v-294q-44 10 -94 10q-104 0 -190.5 -54.5t-120.5 -130.5v-620z" />
<glyph unicode="s" horiz-adv-x="1089" d="M539 -28q-281 0 -447 101v266q76 -50 194.5 -86t239.5 -36q183 0 183 90q0 22 -12 37.5t-41 27.5q-31 14 -55 20l-79 19q-13 4 -44 12t-41 12q-96 25 -158.5 52.5t-106 66t-62 89.5t-18.5 121q0 153 125 240t344 87q241 0 398 -99v-255q-188 111 -386 111 q-171 0 -171 -86q0 -13 4 -23t14.5 -19t17.5 -13.5t24 -13.5q13 -5 47.5 -15t43.5 -13l114 -24q176 -41 261.5 -120.5t85.5 -215.5q0 -150 -130 -242q-130 -91 -345 -91z" />
<glyph unicode="t" horiz-adv-x="939" d="M248 330v481h-210v252h210v292h299v-292h303v-252h-303v-421q0 -78 34.5 -114t111.5 -36q79 0 155 39v-249q-93 -58 -254 -58q-346 0 -346 358z" />
<glyph unicode="u" horiz-adv-x="1317" d="M872 386v677h299v-1063h-299v128q-144 -156 -356 -156q-185 0 -286.5 116.5t-101.5 322.5v652h300v-590q0 -60 16 -104.5t44.5 -70.5t63.5 -38t78 -12q69 0 136 38.5t106 99.5z" />
<glyph unicode="v" horiz-adv-x="1254" d="M762 -8h-272l-462 1071h324l280 -691l280 691h313z" />
<glyph unicode="w" horiz-adv-x="1760" d="M656 -8h-256l-359 1071h300l210 -632l209 636h242l214 -636l207 632h298l-364 -1071h-260l-221 640z" />
<glyph unicode="x" horiz-adv-x="1236" d="M73 1063h336l213 -299l215 299h332l-372 -507l404 -556h-337l-246 341l-250 -341h-332l407 553z" />
<glyph unicode="y" horiz-adv-x="1232" d="M285 -439q-132 0 -212 43v262q74 -43 161 -43q54 0 96 23t76 69.5t65 120.5l-459 1027h325l281 -699l266 699h317l-492 -1173q-140 -329 -424 -329z" />
<glyph unicode="z" horiz-adv-x="1120" d="M1050 0h-981v198l536 613h-503v252h914v-205l-539 -606h573v-252z" />
<glyph unicode="{" horiz-adv-x="870" d="M795 -439h-171q-165 0 -260.5 95.5t-95.5 260.5v236q0 130 -34 189.5t-130 70.5v239q51 6 83 22t50 47.5t24.5 73t6.5 106.5v247q0 165 95.5 260.5t260.5 95.5h171v-236h-107q-68 0 -107.5 -41.5t-39.5 -110.5v-303q0 -229 -171 -281q171 -51 171 -280v-303 q0 -69 39.5 -110.5t107.5 -41.5h107v-236z" />
<glyph unicode="|" horiz-adv-x="736" d="M502 -236h-268v1854h268v-1854z" />
<glyph unicode="}" horiz-adv-x="870" d="M248 -439h-171v236h106q68 0 107.5 41.5t39.5 110.5v303q0 229 170 280q-170 52 -170 281v303q0 69 -39.5 110.5t-107.5 41.5h-106v236h171q108 0 188.5 -43t123.5 -123.5t43 -189.5v-247q0 -65 6.5 -106t24 -73t50 -48t82.5 -22v-239q-40 -4 -68 -17t-46.5 -33 t-29.5 -52t-15 -69t-4 -89v-236q0 -165 -95.5 -260.5t-259.5 -95.5z" />
<glyph unicode="~" horiz-adv-x="1339" d="M945 360q-102 0 -276 57q-178 58 -277 58q-159 0 -252 -99v270q31 40 101 65.5t151 25.5q102 0 277 -58q174 -57 276 -57q163 0 254 98v-271q-32 -40 -102.5 -64.5t-151.5 -24.5z" />
<glyph unicode="&#xa1;" horiz-adv-x="708" d="M471 567l68 -993h-366l65 993h233zM171 903q0 76 54 129.5t131 53.5q76 0 129.5 -53.5t53.5 -129.5q0 -78 -53.5 -132.5t-129.5 -54.5q-51 0 -93.5 24.5t-67 68t-24.5 94.5z" />
<glyph unicode="&#xa2;" horiz-adv-x="1098" d="M516 1073v239h253v-230q105 -13 204 -62v-258q-138 65 -270 65q-139 0 -236 -81q-95 -82 -95 -213.5t97 -215.5q96 -83 234 -83q163 0 287 73v-256q-105 -56 -221 -72v-229h-253v238q-189 42 -315 187q-124 145 -124 359.5t124 353.5q124 143 315 185z" />
<glyph unicode="&#xa3;" d="M1187 0h-1087v275h30q45 0 72.5 8.5t43.5 30.5t21 53t5 82v152h-172v236h172v175q0 237 145 372.5t394 135.5q200 0 341 -73v-286q-133 72 -292 72q-281 0 -281 -264v-132h480v-236h-480v-194q0 -93 -61 -132h669v-275z" />
<glyph unicode="&#xa4;" horiz-adv-x="1224" d="M992 494l142 -140l-130 -130l-140 140q-117 -78 -255 -78t-255 78l-139 -140l-130 130l141 140q-77 113 -77 253.5t77 254.5l-141 140l130 130l139 -142q117 78 255 78t255 -78l140 142l130 -130l-142 -140q77 -114 77 -254.5t-77 -253.5zM439 575q71 -71 170 -71 q101 0 169 71q70 73 70 173q0 101 -70 170q-66 72 -169 72q-101 0 -170 -72t-69 -170t69 -173z" />
<glyph unicode="&#xa5;" horiz-adv-x="1433" d="M147 275v200h418v149h-418v203h332l-458 664h345l354 -532l355 532h335l-458 -664h337v-203h-420v-149h420v-200h-420v-275h-304v275h-418z" />
<glyph unicode="&#xa6;" horiz-adv-x="736" d="M502 -236h-268v752h268v-752zM502 867h-268v751h268v-751z" />
<glyph unicode="&#xa7;" horiz-adv-x="1375" d="M665 -354q-263 0 -476 114v276q246 -125 488 -125q222 0 222 113q0 28 -22.5 53t-61.5 38q-41 22 -89 34l-55 17l-128 39q-222 66 -345 157q-119 92 -119 254q0 189 213 280q-128 99 -128 250q0 177 149 275q152 99 396 99q262 0 476 -112v-280q-247 128 -486 128 q-224 0 -224 -112q0 -50 74 -92q27 -13 122 -42q154 -44 162 -47q74 -22 127.5 -42.5t101.5 -45.5t94 -58q141 -92 141 -266q0 -94 -57.5 -167t-155.5 -114q128 -95 128 -249q0 -176 -151 -275q-152 -100 -396 -100zM782 415l94 -29q140 31 140 138q0 25 -10 45.5t-29 36.5 t-48 30q-4 3 -14.5 8t-13.5 6.5t-11.5 5.5t-14.5 6.5t-16 5.5t-22 7q-49 17 -53 18l-117 37q-132 40 -167 54q-142 -35 -142 -143q0 -35 21.5 -60.5t65.5 -50.5q66 -29 92 -38l53 -17l117 -36q5 -1 14.5 -4t27 -9t33.5 -11z" />
<glyph unicode="&#xa8;" horiz-adv-x="1109" d="M912 1256q-44 -44 -111 -44t-113 44q-44 46 -44 112.5t44 111.5q46 44 113 44t111 -44q46 -45 46 -111.5t-46 -112.5zM332 1212q-64 0 -110.5 46t-46.5 112q0 42 21 77.5t57.5 56.5t78.5 21q66 0 112 -45t46 -110q0 -66 -46.5 -112t-111.5 -46z" />
<glyph unicode="&#xa9;" horiz-adv-x="1766" d="M113 746q0 319 226 545q227 229 547 229t545 -227q224 -227 224 -547t-226 -548q-228 -228 -547 -228q-320 0 -545 228q-224 226 -224 548zM937 319q-190 0 -317 124q-128 125 -128 303q0 179 128 300q126 123 317 123q122 0 215 -49v-181q-105 63 -215 63 q-109 0 -183.5 -73.5t-74.5 -183t77 -182.5q76 -73 189 -73q131 0 224 71v-181q-97 -61 -232 -61zM882 43q293 0 494 207q203 209 203 498q0 292 -201 496q-202 205 -492 205q-293 0 -494 -207q-203 -209 -203 -498.5t201 -495.5q202 -205 492 -205z" />
<glyph unicode="&#xaa;" horiz-adv-x="943" d="M601 920v86q-79 51 -184 51q-77 0 -122 -30t-45 -82q0 -37 19 -62.5t53 -37.5t80 -12q124 0 199 87zM860 848q27 0 45 10v-151q-42 -28 -110 -28q-138 0 -173 105q-110 -113 -279 -113q-130 0 -212 72t-82 192q0 82 42.5 141.5t112.5 89t158 29.5q132 0 239 -55v33 q0 164 -219 164q-128 0 -242 -67v169q115 67 291 67q110 0 193.5 -36.5t130 -107.5t46.5 -167v-279q0 -68 59 -68z" />
<glyph unicode="&#xab;" horiz-adv-x="1256" d="M660 75h-300l-291 381v151l291 381h300l-343 -456zM1191 75h-303l-292 381v151l292 381h303l-345 -456z" />
<glyph unicode="&#xac;" horiz-adv-x="1266" d="M1126 294h-268v340h-718v271h986v-611z" />
<glyph unicode="&#xad;" horiz-adv-x="1067" d="M862 456h-657v270h657v-270z" />
<glyph unicode="&#xae;" horiz-adv-x="1766" d="M113 746q0 319 226 545q227 229 547 229t545 -227q224 -227 224 -547t-226 -548q-228 -228 -547 -228q-320 0 -545 228q-224 226 -224 548zM739 358h-181v815h381q129 0 206.5 -67.5t77.5 -176.5q0 -82 -44 -142t-122 -84l250 -345h-201l-237 323h-130v-323zM739 1020 v-189h192q108 0 108 91q0 47 -28.5 72.5t-79.5 25.5h-192zM882 43q293 0 494 207q203 209 203 498q0 292 -201 496q-202 205 -492 205q-293 0 -494 -207q-203 -209 -203 -498.5t201 -495.5q202 -205 492 -205z" />
<glyph unicode="&#xaf;" horiz-adv-x="1079" d="M862 1268h-653v202h653v-202z" />
<glyph unicode="&#xb0;" horiz-adv-x="838" d="M258 1185q0 -70 46.5 -118.5t114.5 -48.5t115 49t47 118q0 70 -46.5 117.5t-115 47.5t-115 -47.5t-46.5 -117.5zM760 1185q0 -140 -102 -238q-97 -97 -239 -97q-138 0 -240 97q-100 100 -100 238q0 136 100 236q104 99 240 99q139 0 239 -99q102 -98 102 -236z" />
<glyph unicode="&#xb1;" horiz-adv-x="1364" d="M817 447h-272v348h-405v268h405v356h272v-356h408v-268h-408v-348zM1225 41h-1085v268h1085v-268z" />
<glyph unicode="&#xb2;" horiz-adv-x="758" d="M679 685h-598v148l230 196q76 65 107 110t31 88t-33 67.5t-86 24.5q-115 0 -222 -83v201q101 69 239 69q121 0 214 -71q93 -68 93 -183q0 -88 -37 -153.5t-133 -151.5l-102 -91h297v-171z" />
<glyph unicode="&#xb3;" horiz-adv-x="697" d="M307 671q-150 0 -260 64v187q118 -72 243 -72q65 0 109 30.5t44 78.5q0 47 -37 75.5t-101 28.5q-74 0 -130 -24v126l185 156h-289v170h538v-151l-170 -147q43 -10 78.5 -27.5t66 -46t47.5 -70.5t17 -94q0 -126 -101 -207q-99 -77 -240 -77z" />
<glyph unicode="&#xb4;" horiz-adv-x="974" d="M558 1214h-260l202 311h362z" />
<glyph unicode="&#xb5;" horiz-adv-x="1337" d="M890 386v677h301v-1063h-301v128q-143 -156 -355 -156q-52 0 -88 9v-407h-300v1489h300v-590q0 -116 56.5 -170.5t146.5 -54.5q69 0 135 38.5t105 99.5z" />
<glyph unicode="&#xb6;" horiz-adv-x="1217" d="M1055 0h-307v614h-169q-235 0 -372 121q-136 124 -136 317q0 197 136 318q137 121 372 121h476v-1491z" />
<glyph unicode="&#xb7;" horiz-adv-x="559" d="M281 639q-51 0 -94 25t-67 68.5t-24 94.5q0 76 53.5 129.5t131.5 53.5q77 0 131.5 -53.5t54.5 -129.5q0 -78 -55 -133t-131 -55z" />
<glyph unicode="&#xb8;" horiz-adv-x="1071" d="M577 -309h-347l249 333h241z" />
<glyph unicode="&#xb9;" horiz-adv-x="536" d="M456 685h-204v597l-216 -109v201l224 117h196v-806z" />
<glyph unicode="&#xba;" horiz-adv-x="955" d="M479 860q96 0 158 65.5t62 163.5q0 96 -62 161t-158 65q-97 0 -159 -64t-62 -162t62.5 -163.5t158.5 -65.5zM41 1089q0 178 123 295q125 122 315 122q189 0 313 -122q124 -117 124 -295q0 -181 -124 -299q-125 -119 -313 -119q-189 0 -315 119q-123 118 -123 299z" />
<glyph unicode="&#xbb;" horiz-adv-x="1254" d="M366 75h-300l343 457l-343 456h300l292 -381v-151zM894 75h-300l343 457l-343 456h300l293 -381v-151z" />
<glyph unicode="&#xbc;" horiz-adv-x="1628" d="M441 0h-230l899 1491h230zM456 685h-204v597l-216 -109v201l224 117h196v-806zM1482 0h-196v191h-404v146l394 468h206v-456h115v-158h-115v-191zM1286 579l-197 -230h197v230z" />
<glyph unicode="&#xbd;" horiz-adv-x="1716" d="M441 0h-230l899 1491h230zM456 685h-204v597l-216 -109v201l224 117h196v-806zM1638 0h-599v147l231 196q76 65 107 110t31 88q0 42 -33 66.5t-86 24.5q-115 0 -222 -83v203q99 68 238 68q122 0 213 -70q94 -68 94 -183q0 -88 -37 -153.5t-134 -151.5l-101 -91h298v-171z " />
<glyph unicode="&#xbe;" horiz-adv-x="1720" d="M1574 0h-196v191h-405v146l395 468h206v-456h115v-158h-115v-191zM1378 579l-198 -230h198v230zM307 671q-150 0 -260 64v187q118 -72 243 -72q65 0 109 30.5t44 78.5q0 47 -37 75.5t-101 28.5q-74 0 -130 -24v126l185 156h-289v170h538v-151l-170 -147 q43 -10 78.5 -27.5t66 -46t47.5 -70.5t17 -94q0 -126 -101 -207q-99 -77 -240 -77zM535 0h-230l898 1491h230z" />
<glyph unicode="&#xbf;" horiz-adv-x="1045" d="M579 1086q78 0 131.5 -54.5t53.5 -132.5q0 -77 -53.5 -130t-131.5 -53q-76 0 -130.5 53t-54.5 130t54.5 132t130.5 55zM443 567h285v-301q-141 -28 -251 -100q-111 -69 -111 -162q0 -41 18.5 -73.5t51 -53t77 -31t99.5 -10.5q180 0 380 119v-268q-184 -126 -429 -126 q-210 0 -358 118q-148 116 -148 317q0 151 114 258q111 105 272 157v156z" />
<glyph unicode="&#xc0;" horiz-adv-x="1639" d="M356 0h-322l639 1500h294l639 -1500h-326l-146 345h-632zM817 1116l-219 -518h437zM394 1932h362l203 -311h-260z" />
<glyph unicode="&#xc1;" horiz-adv-x="1639" d="M356 0h-322l639 1500h294l639 -1500h-326l-146 345h-632zM817 1116l-219 -518h437zM952 1621h-259l201 311h362z" />
<glyph unicode="&#xc2;" horiz-adv-x="1639" d="M356 0h-322l639 1500h294l639 -1500h-326l-146 345h-632zM817 1116l-219 -518h437zM679 1623h-260l260 309h290l254 -309h-262l-144 164z" />
<glyph unicode="&#xc3;" horiz-adv-x="1639" d="M356 0h-322l639 1500h294l639 -1500h-326l-146 345h-632zM817 1116l-219 -518h437zM596 1630h-163q1 128 68.5 212.5t173.5 84.5q69 0 152 -46.5t130 -46.5q72 0 91 87h162q0 -117 -68 -210q-68 -90 -173 -90q-71 0 -154 47q-86 49 -130 49q-73 0 -89 -87z" />
<glyph unicode="&#xc4;" horiz-adv-x="1639" d="M356 0h-322l639 1500h294l639 -1500h-326l-146 345h-632zM817 1116l-219 -518h437zM1167 1663q-45 -45 -111.5 -45t-112.5 45q-44 46 -44 113t44 112q46 44 112.5 44t111 -44.5t44.5 -111.5t-44 -113zM588 1618q-65 0 -111 46.5t-46 111.5q0 64 46.5 110t110.5 46 q32 0 61 -12t50.5 -33t34 -50t12.5 -61q0 -65 -46.5 -111.5t-111.5 -46.5z" />
<glyph unicode="&#xc5;" horiz-adv-x="1639" d="M356 0h-322l639 1500h294l639 -1500h-326l-146 345h-632zM817 1116l-219 -518h437zM977.5 1627.5q-65.5 -65.5 -157.5 -65.5t-157.5 65.5t-65.5 157.5t65.5 157.5t157.5 65.5t157.5 -65.5t65.5 -157.5t-65.5 -157.5zM750 1715q30 -27 70.5 -27t67.5 27q31 30 31 70.5 t-31 67.5q-27 31 -67.5 31t-70.5 -31q-27 -27 -27 -67.5t27 -70.5z" />
<glyph unicode="&#xc6;" horiz-adv-x="2252" d="M1376 658v-383h797v-275h-1104v345h-532l-192 -345h-337l842 1491h1299v-275h-773v-287h620v-271h-620zM1069 1225h-40l-350 -627h390v627z" />
<glyph unicode="&#xc7;" horiz-adv-x="1441" d="M920 -309h-347l215 290q-300 43 -487 249q-188 209 -188 516q0 339 228 557q230 217 579 217q215 0 395 -93v-309q-174 115 -393 115q-211 0 -355 -138q-141 -137 -141 -349q0 -214 145 -352q142 -136 364 -136q245 0 409 130v-309q-135 -79 -300 -100z" />
<glyph unicode="&#xc8;" horiz-adv-x="1362" d="M1282 0h-1118v1491h1094v-275h-787v-287h635v-271h-635v-383h811v-275zM326 1932h362l202 -311h-260z" />
<glyph unicode="&#xc9;" horiz-adv-x="1362" d="M1282 0h-1118v1491h1094v-275h-787v-287h635v-271h-635v-383h811v-275zM780 1621h-260l202 311h362z" />
<glyph unicode="&#xca;" horiz-adv-x="1362" d="M1282 0h-1118v1491h1094v-275h-787v-287h635v-271h-635v-383h811v-275zM579 1623h-260l260 309h290l253 -309h-262l-142 164z" />
<glyph unicode="&#xcb;" horiz-adv-x="1362" d="M1282 0h-1118v1491h1094v-275h-787v-287h635v-271h-635v-383h811v-275zM1069 1663q-44 -45 -110.5 -45t-112.5 45q-45 46 -45 113t45 112q46 44 112.5 44t111 -44.5t44.5 -111.5t-45 -113zM490 1618q-64 0 -111 46.5t-47 111.5q0 64 47 110t111 46q32 0 61.5 -12 t50.5 -33t33.5 -50t12.5 -61q0 -65 -46.5 -111.5t-111.5 -46.5z" />
<glyph unicode="&#xcc;" horiz-adv-x="653" d="M479 0h-304v1491h304v-1491zM-102 1932h362l202 -311h-259z" />
<glyph unicode="&#xcd;" horiz-adv-x="653" d="M479 0h-304v1491h304v-1491zM458 1621h-260l202 311h362z" />
<glyph unicode="&#xce;" horiz-adv-x="653" d="M185 1623h-260l260 309h290l253 -309h-261l-144 164zM479 0h-304v1491h304v-1491z" />
<glyph unicode="&#xcf;" horiz-adv-x="653" d="M479 0h-304v1491h304v-1491zM673 1663q-45 -45 -111.5 -45t-112.5 45q-44 46 -44 113t44 112q46 44 112.5 44t111 -44.5t44.5 -111.5t-44 -113zM94 1618q-65 0 -111 46.5t-46 111.5q0 64 46.5 110t110.5 46q65 0 111.5 -45t46.5 -110.5t-46.5 -112t-111.5 -46.5z" />
<glyph unicode="&#xd0;" horiz-adv-x="1766" d="M837 0h-558v652h-204v257h204v582h558q362 0 590 -209t228 -536q0 -330 -228 -539q-226 -207 -590 -207zM586 652v-377h225q249 0 389 124t140 347q0 147 -63 253t-182 161.5t-284 55.5h-225v-307h294v-257h-294z" />
<glyph unicode="&#xd1;" horiz-adv-x="1642" d="M464 0h-300v1491h262l752 -954v954h298v-1491h-253l-759 959v-959zM596 1630h-163q1 128 68.5 212.5t173.5 84.5q69 0 152 -46.5t130 -46.5q72 0 91 87h162q0 -117 -68 -210q-68 -90 -173 -90q-71 0 -154 47q-86 49 -130 49q-73 0 -89 -87z" />
<glyph unicode="&#xd2;" horiz-adv-x="1771" d="M556 396q132 -138 330 -138q196 0 328 138.5t132 349.5t-132 349t-328 138q-198 0 -330 -138q-130 -136 -130 -349.5t130 -349.5zM113 746q0 327 219 549q219 225 554 225q332 0 551 -225q222 -225 222 -549q0 -323 -222 -550q-219 -226 -551 -226q-335 0 -554 226 q-219 224 -219 550zM456 1932h361l203 -311h-260z" />
<glyph unicode="&#xd3;" horiz-adv-x="1771" d="M556 396q132 -138 330 -138q196 0 328 138.5t132 349.5t-132 349t-328 138q-198 0 -330 -138q-130 -136 -130 -349.5t130 -349.5zM113 746q0 327 219 549q219 225 554 225q332 0 551 -225q222 -225 222 -549q0 -323 -222 -550q-219 -226 -551 -226q-335 0 -554 226 q-219 224 -219 550zM990 1621h-260l203 311h362z" />
<glyph unicode="&#xd4;" horiz-adv-x="1771" d="M556 396q132 -138 330 -138q196 0 328 138.5t132 349.5t-132 349t-328 138q-198 0 -330 -138q-130 -136 -130 -349.5t130 -349.5zM113 746q0 327 219 549q219 225 554 225q332 0 551 -225q222 -225 222 -549q0 -323 -222 -550q-219 -226 -551 -226q-335 0 -554 226 q-219 224 -219 550zM746 1623h-260l260 309h289l254 -309h-263l-142 164z" />
<glyph unicode="&#xd5;" horiz-adv-x="1771" d="M556 396q132 -138 330 -138q196 0 328 138.5t132 349.5t-132 349t-328 138q-198 0 -330 -138q-130 -136 -130 -349.5t130 -349.5zM113 746q0 327 219 549q219 225 554 225q332 0 551 -225q222 -225 222 -549q0 -323 -222 -550q-219 -226 -551 -226q-335 0 -554 226 q-219 224 -219 550zM662 1630h-164q1 83 32 151t86.5 107t125.5 39q67 0 150 -46.5t130 -46.5q73 0 92 87h162q0 -116 -69 -210q-67 -90 -172 -90q-70 0 -153 47q-87 49 -130 49q-74 0 -90 -87z" />
<glyph unicode="&#xd6;" horiz-adv-x="1771" d="M556 396q132 -138 330 -138q196 0 328 138.5t132 349.5t-132 349t-328 138q-198 0 -330 -138q-130 -136 -130 -349.5t130 -349.5zM113 746q0 327 219 549q219 225 554 225q332 0 551 -225q222 -225 222 -549q0 -323 -222 -550q-219 -226 -551 -226q-335 0 -554 226 q-219 224 -219 550zM1233 1663q-44 -45 -110.5 -45t-112.5 45q-45 46 -45 113t45 112q46 44 112.5 44t111 -44.5t44.5 -111.5t-45 -113zM654 1618q-64 0 -111 46.5t-47 111.5q0 64 47 110t111 46q43 0 79 -20.5t57 -56.5t21 -79q0 -65 -45.5 -111.5t-111.5 -46.5z" />
<glyph unicode="&#xd7;" horiz-adv-x="1277" d="M641 516l-311 -309l-190 189l311 309l-311 311l190 189l309 -309l311 309l188 -189l-307 -311l307 -309l-188 -189z" />
<glyph unicode="&#xd8;" horiz-adv-x="1771" d="M886 -30q-235 0 -422 119l-72 -89h-239l170 207q-210 219 -210 539q0 327 219 549q219 225 554 225q227 0 419 -118l75 89h243l-172 -209q208 -220 208 -536q0 -323 -222 -550q-219 -226 -551 -226zM426 746q0 -173 92 -303l600 728q-109 62 -232 62q-198 0 -330 -138 q-130 -136 -130 -349zM886 258q196 0 328 138.5t132 349.5q0 168 -92 298l-600 -727q104 -59 232 -59z" />
<glyph unicode="&#xd9;" horiz-adv-x="1565" d="M782 -30q-280 0 -458.5 172.5t-178.5 483.5v865h304v-875q0 -87 24.5 -155.5t69 -112.5t105 -67t134.5 -23q153 0 243.5 92.5t90.5 265.5v875h307v-865q0 -312 -181 -484q-179 -172 -460 -172zM364 1932h362l203 -311h-260z" />
<glyph unicode="&#xda;" horiz-adv-x="1565" d="M782 -30q-280 0 -458.5 172.5t-178.5 483.5v865h304v-875q0 -87 24.5 -155.5t69 -112.5t105 -67t134.5 -23q153 0 243.5 92.5t90.5 265.5v875h307v-865q0 -312 -181 -484q-179 -172 -460 -172zM901 1621h-260l202 311h362z" />
<glyph unicode="&#xdb;" horiz-adv-x="1565" d="M782 -30q-280 0 -458.5 172.5t-178.5 483.5v865h304v-875q0 -87 24.5 -155.5t69 -112.5t105 -67t134.5 -23q153 0 243.5 92.5t90.5 265.5v875h307v-865q0 -312 -181 -484q-179 -172 -460 -172zM643 1623h-259l259 309h290l254 -309h-262l-143 164z" />
<glyph unicode="&#xdc;" horiz-adv-x="1565" d="M782 -30q-280 0 -458.5 172.5t-178.5 483.5v865h304v-875q0 -87 24.5 -155.5t69 -112.5t105 -67t134.5 -23q153 0 243.5 92.5t90.5 265.5v875h307v-865q0 -312 -181 -484q-179 -172 -460 -172zM1128 1663q-44 -45 -110.5 -45t-112.5 45q-45 46 -45 113t45 112 q46 44 112.5 44t111 -44.5t44.5 -111.5t-45 -113zM549 1618q-64 0 -110.5 46.5t-46.5 111.5q0 64 46.5 110t110.5 46q43 0 79.5 -20.5t57.5 -56.5t21 -79q0 -65 -46 -111.5t-112 -46.5z" />
<glyph unicode="&#xdd;" horiz-adv-x="1482" d="M894 0h-304v669l-578 822h362l372 -530l372 530h352l-576 -816v-675zM854 1621h-260l203 311h362z" />
<glyph unicode="&#xde;" horiz-adv-x="1422" d="M164 1491h307v-296h364q240 0 379 -126q141 -126 141 -323q0 -201 -141 -327q-138 -125 -379 -125h-364v-294h-307v1491zM813 927h-342v-371h342q111 0 173 48.5t62 137t-62 137t-173 48.5z" />
<glyph unicode="&#xdf;" horiz-adv-x="1333" d="M797 -19q-127 0 -194 25v242q67 -24 134 -24q104 0 167 59.5t63 159.5q0 113 -79.5 177.5t-218.5 64.5h-39v218h37q94 0 145.5 45.5t51.5 126.5t-53.5 127t-143.5 46q-100 0 -160 -64t-60 -178v-1006h-300v1008q0 235 143 372q143 136 372 136q232 0 360 -116 q130 -115 130 -290q0 -110 -50.5 -190t-125.5 -107q121 -34 201.5 -140.5t80.5 -259.5q0 -137 -58.5 -235t-162 -147.5t-240.5 -49.5z" />
<glyph unicode="&#xe0;" d="M1159 232q38 0 62 13v-219q-57 -45 -162 -45q-181 0 -242 137q-142 -146 -366 -146q-173 0 -282.5 97.5t-109.5 258.5q0 171 124 260q126 89 296 89q182 0 307 -65v31q0 200 -282 200q-170 0 -321 -89v252q161 85 394 85q230 0 366 -111q141 -113 141 -307v-360 q0 -81 75 -81zM786 419q-94 63 -221 63q-97 0 -153 -37t-56 -102q0 -68 51.5 -103t137.5 -35q159 0 241 108v106zM224 1538h364l202 -311h-260z" />
<glyph unicode="&#xe1;" d="M1159 232q38 0 62 13v-219q-57 -45 -162 -45q-181 0 -242 137q-142 -146 -366 -146q-173 0 -282.5 97.5t-109.5 258.5q0 171 124 260q126 89 296 89q182 0 307 -65v31q0 200 -282 200q-170 0 -321 -89v252q161 85 394 85q230 0 366 -111q141 -113 141 -307v-360 q0 -81 75 -81zM786 419q-94 63 -221 63q-97 0 -153 -37t-56 -102q0 -68 51.5 -103t137.5 -35q159 0 241 108v106zM671 1214h-260l203 311h362z" />
<glyph unicode="&#xe2;" d="M1159 232q38 0 62 13v-219q-57 -45 -162 -45q-181 0 -242 137q-142 -146 -366 -146q-173 0 -282.5 97.5t-109.5 258.5q0 171 124 260q126 89 296 89q182 0 307 -65v31q0 200 -282 200q-170 0 -321 -89v252q161 85 394 85q230 0 366 -111q141 -113 141 -307v-360 q0 -81 75 -81zM786 419q-94 63 -221 63q-97 0 -153 -37t-56 -102q0 -68 51.5 -103t137.5 -35q159 0 241 108v106zM435 1214h-258l260 311h289l254 -311h-264l-141 166z" />
<glyph unicode="&#xe3;" d="M1159 232q38 0 62 13v-219q-57 -45 -162 -45q-181 0 -242 137q-142 -146 -366 -146q-173 0 -282.5 97.5t-109.5 258.5q0 171 124 260q126 89 296 89q182 0 307 -65v31q0 200 -282 200q-170 0 -321 -89v252q161 85 394 85q230 0 366 -111q141 -113 141 -307v-360 q0 -81 75 -81zM786 419q-94 63 -221 63q-97 0 -153 -37t-56 -102q0 -68 51.5 -103t137.5 -35q159 0 241 108v106zM374 1227h-161q0 126 66 210q68 88 174 88q69 0 152 -47q86 -47 132 -47q74 0 90 87h163q-3 -119 -70 -211q-67 -89 -170 -89q-69 0 -154 48q-87 49 -129 49 q-74 0 -93 -88z" />
<glyph unicode="&#xe4;" d="M1159 232q38 0 62 13v-219q-57 -45 -162 -45q-181 0 -242 137q-142 -146 -366 -146q-173 0 -282.5 97.5t-109.5 258.5q0 171 124 260q126 89 296 89q182 0 307 -65v31q0 200 -282 200q-170 0 -321 -89v252q161 85 394 85q230 0 366 -111q141 -113 141 -307v-360 q0 -81 75 -81zM786 419q-94 63 -221 63q-97 0 -153 -37t-56 -102q0 -68 51.5 -103t137.5 -35q159 0 241 108v106zM941 1256q-44 -44 -110.5 -44t-112.5 44q-45 46 -45 112.5t45 111.5q46 44 112.5 44t110.5 -44q46 -45 46 -111.5t-46 -112.5zM362 1212q-42 0 -78 21 t-57.5 57.5t-21.5 79.5q0 63 46.5 109t110.5 46q66 0 112 -45t46 -110q0 -66 -46.5 -112t-111.5 -46z" />
<glyph unicode="&#xe5;" d="M1159 232q38 0 62 13v-219q-57 -45 -162 -45q-181 0 -242 137q-142 -146 -366 -146q-173 0 -282.5 97.5t-109.5 258.5q0 171 124 260q126 89 296 89q182 0 307 -65v31q0 200 -282 200q-170 0 -321 -89v252q161 85 394 85q230 0 366 -111q141 -113 141 -307v-360 q0 -81 75 -81zM786 419q-94 63 -221 63q-97 0 -153 -37t-56 -102q0 -68 51.5 -103t137.5 -35q159 0 241 108v106zM747.5 1227.5q-65.5 -65.5 -157.5 -65.5t-157.5 65.5t-65.5 157.5t65.5 157.5t157.5 65.5t157.5 -65.5t65.5 -157.5t-65.5 -157.5zM520 1315q30 -28 70.5 -28 t67.5 28q31 30 31 70.5t-31 67.5q-27 30 -67.5 30t-70.5 -30q-27 -27 -27 -67.5t27 -70.5z" />
<glyph unicode="&#xe6;" horiz-adv-x="1922" d="M1840 528v-79h-763q16 -71 65 -121t123 -75t168 -25q176 0 341 93v-240q-143 -109 -404 -109q-293 0 -463 199q-71 -85 -190 -142t-257 -57q-180 0 -290.5 97.5t-110.5 258.5q0 171 124 260q126 89 296 89q182 0 307 -65v31q0 200 -282 200q-170 0 -321 -89v252 q161 85 394 85q245 0 384 -146q152 146 366 146q237 0 374 -162q139 -164 139 -401zM545 201q87 0 160.5 35t107.5 92q-15 42 -25 96q-93 62 -223 62q-63 0 -110 -16.5t-73 -49t-26 -77.5q0 -68 52 -105t137 -37zM1077 641h467q-4 91 -65 152t-158 61q-67 0 -120 -27 t-84.5 -75.5t-39.5 -110.5z" />
<glyph unicode="&#xe7;" horiz-adv-x="1098" d="M77 535q0 252 171 402q174 154 410 154q174 0 315 -71v-256q-138 65 -270 65q-140 0 -236 -83q-95 -82 -95 -213.5t97 -215.5q96 -83 234 -83q163 0 287 73v-256q-80 -44 -177 -63l-125 -297h-347l215 290q-205 28 -343 179q-136 149 -136 375z" />
<glyph unicode="&#xe8;" horiz-adv-x="1219" d="M667 -28q-248 0 -419 154q-171 153 -171 406q0 238 153 397q153 162 400 162q230 0 369 -164t139 -399v-79h-764q12 -53 43 -95t77 -69.5t106 -42t130 -14.5q176 0 341 93v-240q-143 -109 -404 -109zM374 641h467q-3 59 -30 107t-77.5 77t-115.5 29q-101 0 -167 -59 t-77 -154zM268 1538h364l203 -311h-260z" />
<glyph unicode="&#xe9;" horiz-adv-x="1219" d="M667 -28q-248 0 -419 154q-171 153 -171 406q0 238 153 397q153 162 400 162q230 0 369 -164t139 -399v-79h-764q12 -53 43 -95t77 -69.5t106 -42t130 -14.5q176 0 341 93v-240q-143 -109 -404 -109zM374 641h467q-3 59 -30 107t-77.5 77t-115.5 29q-101 0 -167 -59 t-77 -154zM722 1214h-260l203 311h361z" />
<glyph unicode="&#xea;" horiz-adv-x="1219" d="M667 -28q-248 0 -419 154q-171 153 -171 406q0 238 153 397q153 162 400 162q230 0 369 -164t139 -399v-79h-764q12 -53 43 -95t77 -69.5t106 -42t130 -14.5q176 0 341 93v-240q-143 -109 -404 -109zM374 641h467q-3 59 -30 107t-77.5 77t-115.5 29q-101 0 -167 -59 t-77 -154zM469 1214h-258l260 311h289l254 -311h-264l-141 166z" />
<glyph unicode="&#xeb;" horiz-adv-x="1219" d="M667 -28q-248 0 -419 154q-171 153 -171 406q0 238 153 397q153 162 400 162q230 0 369 -164t139 -399v-79h-764q12 -53 43 -95t77 -69.5t106 -42t130 -14.5q176 0 341 93v-240q-143 -109 -404 -109zM374 641h467q-3 59 -30 107t-77.5 77t-115.5 29q-101 0 -167 -59 t-77 -154zM959 1256q-45 -44 -111.5 -44t-112.5 44q-44 46 -44 112.5t44 111.5q46 44 112.5 44t111.5 -44q46 -45 46 -111.5t-46 -112.5zM380 1212q-65 0 -111.5 46.5t-46.5 111.5q0 63 46.5 109t111.5 46t111 -45t46 -110q0 -43 -21 -79.5t-57 -57.5t-79 -21z" />
<glyph unicode="&#xec;" horiz-adv-x="567" d="M435 0h-301v1063h301v-1063zM-145 1538h364l203 -311h-260z" />
<glyph unicode="&#xed;" horiz-adv-x="567" d="M435 0h-301v1063h301v-1063zM409 1214h-260l203 311h361z" />
<glyph unicode="&#xee;" horiz-adv-x="567" d="M140 1214h-258l260 311h291l252 -311h-263l-141 166zM435 0h-301v1063h301v-1063z" />
<glyph unicode="&#xef;" horiz-adv-x="565" d="M628 1256q-44 -44 -110.5 -44t-112.5 44q-45 46 -45 112.5t45 111.5q46 44 112.5 44t110.5 -44q46 -45 46 -111.5t-46 -112.5zM49 1212q-64 0 -110.5 46t-46.5 112q0 63 46.5 109t110.5 46q66 0 112 -45t46 -110q0 -66 -46.5 -112t-111.5 -46zM435 0h-301v1063h301v-1063 z" />
<glyph unicode="&#xf0;" d="M641 -28q-246 0 -407 152q-157 151 -157 368q0 214 132 349q134 135 342 135q123 0 201 -37l-171 226l-255 -98l-109 147l245 96l-145 181h324l68 -89l211 78l106 -149l-201 -77l171 -236q109 -147 163 -264q48 -107 48 -238q0 -231 -161 -386q-161 -158 -405 -158z M641 762q-76 0 -137.5 -34t-96.5 -95t-35 -135t34.5 -134t96 -94t138.5 -34q117 0 194 74.5t77 187.5q0 56 -20.5 105t-56.5 84t-86.5 55t-107.5 20z" />
<glyph unicode="&#xf1;" horiz-adv-x="1315" d="M443 1227h-162q0 125 66 210q69 88 175 88q68 0 151 -47q86 -47 132 -47q74 0 89 87h165q-3 -118 -71 -211q-67 -89 -171 -89q-68 0 -152 48q-87 49 -130 49q-73 0 -92 -88zM447 677v-677h-300v1063h300v-128q144 156 356 156q92 0 165 -30.5t122 -87t75 -138t26 -183.5 v-652h-301v590q0 59 -15.5 104t-44 70.5t-64 38t-78.5 12.5q-69 0 -135.5 -39t-105.5 -99z" />
<glyph unicode="&#xf2;" horiz-adv-x="1331" d="M456 319q82 -85 211 -85t211 85q83 87 83 213q0 128 -83 212q-82 85 -211 85t-211 -85q-84 -84 -84 -212q0 -126 84 -213zM77 532q0 238 165 397q166 162 425 162t424 -162.5t165 -396.5q0 -238 -165 -400q-166 -160 -424 -160t-425 160q-165 162 -165 400zM252 1538h364 l201 -311h-259z" />
<glyph unicode="&#xf3;" horiz-adv-x="1331" d="M456 319q82 -85 211 -85t211 85q83 87 83 213q0 128 -83 212q-82 85 -211 85t-211 -85q-84 -84 -84 -212q0 -126 84 -213zM77 532q0 238 165 397q166 162 425 162t424 -162.5t165 -396.5q0 -238 -165 -400q-166 -160 -424 -160t-425 160q-165 162 -165 400zM775 1214 h-259l202 311h362z" />
<glyph unicode="&#xf4;" horiz-adv-x="1331" d="M456 319q82 -85 211 -85t211 85q83 87 83 213q0 128 -83 212q-82 85 -211 85t-211 -85q-84 -84 -84 -212q0 -126 84 -213zM77 532q0 238 165 397q166 162 425 162t424 -162.5t165 -396.5q0 -238 -165 -400q-166 -160 -424 -160t-425 160q-165 162 -165 400zM522 1214 h-258l260 311h289l254 -311h-264l-141 166z" />
<glyph unicode="&#xf5;" horiz-adv-x="1331" d="M456 319q82 -85 211 -85t211 85q83 87 83 213q0 128 -83 212q-82 85 -211 85t-211 -85q-84 -84 -84 -212q0 -126 84 -213zM77 532q0 238 165 397q166 162 425 162t424 -162.5t165 -396.5q0 -238 -165 -400q-166 -160 -424 -160t-425 160q-165 162 -165 400zM441 1227 h-162q0 125 66 210q69 88 175 88q68 0 151 -47q86 -47 132 -47q73 0 89 87h165q-3 -118 -71 -211q-68 -89 -171 -89q-68 0 -153 48q-86 49 -130 49q-72 0 -91 -88z" />
<glyph unicode="&#xf6;" horiz-adv-x="1331" d="M456 319q82 -85 211 -85t211 85q83 87 83 213q0 128 -83 212q-82 85 -211 85t-211 -85q-84 -84 -84 -212q0 -126 84 -213zM77 532q0 238 165 397q166 162 425 162t424 -162.5t165 -396.5q0 -238 -165 -400q-166 -160 -424 -160t-425 160q-165 162 -165 400zM1012 1256 q-45 -44 -111.5 -44t-112.5 44q-44 46 -44 112.5t44 111.5q46 44 112.5 44t111.5 -44q46 -45 46 -111.5t-46 -112.5zM433 1212q-65 0 -111.5 46.5t-46.5 111.5q0 63 46.5 109t111.5 46t111 -45t46 -110q0 -66 -46 -112t-111 -46z" />
<glyph unicode="&#xf7;" horiz-adv-x="1345" d="M807 1052q-53 -53 -131.5 -53t-134.5 53q-56 57 -56 135.5t56 131.5q56 56 134.5 56t131.5 -56q56 -53 56 -131.5t-56 -135.5zM1205 571h-1065v268h1065v-268zM807 89q-53 -53 -131.5 -53t-134.5 53q-56 57 -56 135t56 134t134.5 56t131.5 -56q56 -56 56 -134t-56 -135z " />
<glyph unicode="&#xf8;" horiz-adv-x="1331" d="M667 -28q-173 0 -311 77l-41 -49h-209l124 145q-153 156 -153 387q0 238 165 397q166 162 425 162q170 0 309 -77l42 49h209l-126 -147q155 -158 155 -384q0 -238 -165 -400q-166 -160 -424 -160zM372 532q0 -97 47 -168l376 439q-61 28 -128 28q-84 0 -151.5 -39 t-105.5 -107t-38 -153zM667 234q127 0 210.5 85t83.5 213q0 96 -47 167l-375 -439q60 -26 128 -26z" />
<glyph unicode="&#xf9;" horiz-adv-x="1317" d="M1171 1063v-1063h-299v128q-144 -156 -356 -156q-185 0 -286.5 116.5t-101.5 322.5v652h300v-590q0 -60 16 -104.5t44.5 -70.5t63.5 -38t78 -12q69 0 136 38.5t106 99.5v677h299zM272 1538h364l203 -311h-260z" />
<glyph unicode="&#xfa;" horiz-adv-x="1317" d="M1171 1063v-1063h-299v128q-144 -156 -356 -156q-185 0 -286.5 116.5t-101.5 322.5v652h300v-590q0 -60 16 -104.5t44.5 -70.5t63.5 -38t78 -12q69 0 136 38.5t106 99.5v677h299zM728 1214h-259l202 311h362z" />
<glyph unicode="&#xfb;" horiz-adv-x="1317" d="M1171 1063v-1063h-299v128q-144 -156 -356 -156q-185 0 -286.5 116.5t-101.5 322.5v652h300v-590q0 -60 16 -104.5t44.5 -70.5t63.5 -38t78 -12q69 0 136 38.5t106 99.5v677h299zM506 1214h-256l259 311h290l253 -311h-264l-140 166z" />
<glyph unicode="&#xfc;" horiz-adv-x="1317" d="M1171 1063v-1063h-299v128q-144 -156 -356 -156q-185 0 -286.5 116.5t-101.5 322.5v652h300v-590q0 -60 16 -104.5t44.5 -70.5t63.5 -38t78 -12q69 0 136 38.5t106 99.5v677h299zM996 1256q-44 -44 -110.5 -44t-112.5 44q-45 46 -45 112.5t45 111.5q46 44 112.5 44 t110.5 -44q46 -45 46 -111.5t-46 -112.5zM417 1212q-64 0 -110.5 46t-46.5 112q0 63 46.5 109t110.5 46q66 0 112 -45t46 -110q0 -66 -46 -112t-112 -46z" />
<glyph unicode="&#xfd;" horiz-adv-x="1232" d="M285 -439q-132 0 -212 43v262q74 -43 161 -43q54 0 96 23t76 69.5t65 120.5l-459 1027h325l281 -699l266 699h317l-492 -1173q-140 -329 -424 -329zM709 1214h-260l203 311h362z" />
<glyph unicode="&#xfe;" horiz-adv-x="1370" d="M797 -28q-230 0 -350 158v-556h-300v1917h300v-558q127 158 350 158q217 0 357 -162q143 -158 143 -397t-143 -400q-141 -160 -357 -160zM711 234q128 0 207 85q81 88 81 213q0 124 -81 212q-79 85 -207 85q-85 0 -155.5 -43.5t-108.5 -114.5v-277q25 -46 64 -82t91 -57 t109 -21z" />
<glyph unicode="&#xff;" horiz-adv-x="1232" d="M285 -439q-132 0 -212 43v262q74 -43 161 -43q54 0 96 23t76 69.5t65 120.5l-459 1027h325l281 -699l266 699h317l-492 -1173q-140 -329 -424 -329zM950 1256q-45 -44 -111.5 -44t-112.5 44q-45 46 -45 112.5t45 111.5q46 44 112.5 44t111.5 -44q46 -45 46 -111.5 t-46 -112.5zM370 1212q-64 0 -110.5 46t-46.5 112q0 63 46.5 109t110.5 46q66 0 112 -45t46 -110q0 -66 -46 -112t-112 -46z" />
<glyph unicode="&#x152;" horiz-adv-x="2297" d="M2217 0h-1286q-364 0 -590 207q-228 209 -228 539q0 327 228 536t590 209h1262v-275h-772v-287h619v-271h-619v-383h796v-275zM957 275h157v941h-157q-251 0 -390 -124t-139 -346.5t139 -346.5t390 -124z" />
<glyph unicode="&#x153;" horiz-adv-x="2084" d="M2002 528v-79h-762q23 -106 118 -163.5t237 -57.5q176 0 341 93v-240q-143 -109 -413 -109q-266 0 -428 173q-169 -173 -435 -173q-252 0 -417.5 162t-165.5 398q0 238 165 397q166 162 425 162t428 -179q156 179 394 179q236 0 375 -164q138 -164 138 -399zM456 319 q82 -85 211 -85t211 85q83 87 83 213.5t-83 213.5q-82 85 -211 85t-211 -85q-84 -87 -84 -213.5t84 -213.5zM1240 641h466q-5 91 -65.5 152t-158.5 61q-101 0 -166 -59t-76 -154z" />
<glyph unicode="&#x178;" horiz-adv-x="1482" d="M894 0h-304v669l-578 822h362l372 -530l372 530h352l-576 -816v-675zM1089 1663q-45 -45 -112 -45t-113 45q-44 46 -44 113t44 112q46 44 113 44t111.5 -44.5t44.5 -111.5t-44 -113zM509 1618q-42 0 -78.5 21t-57.5 57.5t-21 79.5q0 64 46.5 110t110.5 46q65 0 111.5 -45 t46.5 -110.5t-46.5 -112t-111.5 -46.5z" />
<glyph unicode="&#x2c6;" horiz-adv-x="1149" d="M435 1214h-258l260 311h289l254 -311h-264l-141 166z" />
<glyph unicode="&#x2dc;" horiz-adv-x="1083" d="M311 1227h-162q0 125 66 210q69 88 175 88q68 0 151 -47q86 -47 132 -47q73 0 89 87h165q-3 -118 -71 -211q-68 -89 -171 -89q-68 0 -153 48q-86 49 -130 49q-72 0 -91 -88z" />
<glyph unicode="&#x2000;" horiz-adv-x="1004" />
<glyph unicode="&#x2001;" horiz-adv-x="2008" />
<glyph unicode="&#x2002;" horiz-adv-x="1004" />
<glyph unicode="&#x2003;" horiz-adv-x="2008" />
<glyph unicode="&#x2004;" horiz-adv-x="669" />
<glyph unicode="&#x2005;" horiz-adv-x="502" />
<glyph unicode="&#x2006;" horiz-adv-x="334" />
<glyph unicode="&#x2007;" horiz-adv-x="334" />
<glyph unicode="&#x2008;" horiz-adv-x="251" />
<glyph unicode="&#x2009;" horiz-adv-x="401" />
<glyph unicode="&#x200a;" horiz-adv-x="111" />
<glyph unicode="&#x2010;" horiz-adv-x="1067" d="M862 456h-657v270h657v-270z" />
<glyph unicode="&#x2011;" horiz-adv-x="1067" d="M862 456h-657v270h657v-270z" />
<glyph unicode="&#x2012;" horiz-adv-x="1067" d="M862 456h-657v270h657v-270z" />
<glyph unicode="&#x2013;" horiz-adv-x="1642" d="M1437 456h-1232v270h1232v-270z" />
<glyph unicode="&#x2014;" horiz-adv-x="1953" d="M1748 456h-1543v270h1543v-270z" />
<glyph unicode="&#x2018;" horiz-adv-x="616" d="M311 1491h247l-184 -645h-321z" />
<glyph unicode="&#x2019;" horiz-adv-x="616" d="M303 846h-248l183 645h323z" />
<glyph unicode="&#x201a;" horiz-adv-x="595" d="M260 -323h-248l184 644h322z" />
<glyph unicode="&#x201c;" horiz-adv-x="1079" d="M773 1491h247l-183 -645h-321zM311 1491h247l-184 -645h-321z" />
<glyph unicode="&#x201d;" horiz-adv-x="1079" d="M764 846h-246l183 645h321zM303 846h-248l183 645h323z" />
<glyph unicode="&#x201e;" horiz-adv-x="1057" d="M722 -323h-247l183 644h322zM260 -323h-248l184 644h322z" />
<glyph unicode="&#x2022;" horiz-adv-x="880" d="M128 827q0 130 91.5 221.5t221.5 91.5q131 0 219 -92q92 -91 92 -221q0 -128 -92 -220q-88 -91 -219 -91q-130 0 -221.5 91.5t-91.5 219.5z" />
<glyph unicode="&#x2026;" horiz-adv-x="1603" d="M281 -24q-78 0 -131.5 55t-53.5 133q0 77 53.5 130t131.5 53q77 0 131.5 -53.5t54.5 -129.5q0 -78 -55 -133t-131 -55zM618 164q0 50 24.5 92.5t67.5 66.5t93 24q77 0 131 -53t54 -130q0 -78 -54.5 -133t-131 -55t-130.5 55t-54 133zM1140 164q0 50 25 92.5t67.5 66.5 t92.5 24q77 0 131 -53t54 -130q0 -78 -54.5 -133t-131 -55t-130.5 55t-54 133z" />
<glyph unicode="&#x202f;" horiz-adv-x="401" />
<glyph unicode="&#x2039;" horiz-adv-x="725" d="M660 75h-300l-291 381v151l291 381h300l-343 -456z" />
<glyph unicode="&#x203a;" horiz-adv-x="725" d="M366 75h-300l343 457l-343 456h300l292 -381v-151z" />
<glyph unicode="&#x205f;" horiz-adv-x="502" />
<glyph unicode="&#x20ac;" horiz-adv-x="1407" d="M984 1020v-183h-458q-4 -64 -4 -77q0 -17 4 -65h458v-186h-417q46 -123 152.5 -190t253.5 -67q198 0 337 108v-301q-150 -89 -375 -89q-268 0 -451 148q-186 152 -246 391h-175v186h148q-2 16 -2 69q0 9 4 73h-150v183h187q66 225 248 362q184 138 437 138q197 0 343 -79 v-289q-146 88 -305 88q-286 0 -392 -220h403z" />
<glyph unicode="&#x2122;" horiz-adv-x="1456" d="M862 829h-165v662h155l177 -241l172 241h158v-662h-168v394l-120 -158h-85l-124 160v-396zM407 829h-169v511h-202v151h573v-151h-202v-511z" />
<glyph unicode="&#x25fc;" horiz-adv-x="1064" d="M0 1065h1065v-1065h-1065v1065z" />
</font>
</defs>
</svg>
