<svg width="19" height="19" viewBox="0 0 19 19" xmlns="http://www.w3.org/2000/svg"><g fill="none" fill-rule="evenodd"><path d="M9.476.048a9.476 9.476 0 0 1 9.476 9.476A9.476 9.476 0 0 1 9.476 19a9.476 9.476 0 0 1 0-18.952z" fill="#F4B459"/><path d="M9.476 1.827a7.7 7.7 0 1 0 0 15.399 7.7 7.7 0 0 0 0-15.399zm0 14.215a6.515 6.515 0 1 1 0-13.03 6.515 6.515 0 0 1 0 13.03zm1.867-6.823c.438-.226.713-.624.649-1.287-.087-.905-.933-1.209-1.91-1.295V5.38h-.608v1.223l-.604.008v-1.23h-.589v1.254c-.163.004-.564.008-.722.008V6.64l-1.043-.001v.817s.78-.011.772 0c.306 0 .406.18.434.335v1.43l.08.006h-.08v2.005c-.013.098-.07.253-.283.254.01.009-.773 0-.773 0l-.15.913H7.5l.78.004v1.271h.571v-1.257c.208.005.408.007.604.006v1.251h.664v-1.268c1.27-.074 2.198-.398 2.308-1.605.09-.973-.362-1.407-1.084-1.582zM8.815 7.51c.426 0 1.768-.137 1.768.764 0 .863-1.342.763-1.768.763V7.511zm0 3.98V9.808c.512 0 2.12-.15 2.12.841 0 .95-1.608.842-2.12.842z" fill="#D07C40"/></g></svg>