<?xml version="1.0" encoding="UTF-8"?>
<svg width="18px" height="20px" viewBox="0 0 18 20" version="1.1" xmlns="http://www.w3.org/2000/svg" xmlns:xlink="http://www.w3.org/1999/xlink">
    <!-- Generator: Sketch 52 (66869) - http://www.bohemiancoding.com/sketch -->
    <title>baseline-date_range-24px (1)</title>
    <desc>Created with Sketch.</desc>
    <g id="v-2.0-Stream-payment" stroke="none" stroke-width="1" fill="none" fill-rule="evenodd">
        <g id="2.0-Stream-payment-_01" transform="translate(-514.000000, -689.000000)">
            <g id="Group-Copy" transform="translate(503.000000, 683.000000)">
                <g id="baseline-date_range-24px-(1)" transform="translate(8.000000, 4.000000)">
                    <polygon id="Shape" points="0 0 24 0 24 24 0 24"></polygon>
                    <path d="M17,11 L13,11 L13,15 L17,15 L17,11 Z M19,4 L18,4 L18,2 L16,2 L16,4 L8,4 L8,2 L6,2 L6,4 L5,4 C3.89,4 3.01,4.9 3.01,6 L3,20 C3,21.1 3.89,22 5,22 L19,22 C20.1,22 21,21.1 21,20 L21,6 C21,4.9 20.1,4 19,4 Z M19,20 L5,20 L5,9 L19,9 L19,20 Z" id="Shape" fill="#ffb700" fill-rule="nonzero"></path>
                </g>
            </g>
        </g>
    </g>
</svg>
