<svg width="20" height="12" viewBox="0 0 20 12" xmlns="http://www.w3.org/2000/svg"><g fill-rule="nonzero" fill="#ffb700"><path d="M18.55 4.703a.64.64 0 0 0-.923-.04.712.712 0 0 0-.027.968l1.32 1.482a.64.64 0 0 0 .923.04.712.712 0 0 0 .027-.968l-1.32-1.482zm-3.226 2.606a.645.645 0 0 0-.891-.256c-.311.188-.413.612-.235.937l.968 1.755c.181.33.59.439.892.256.31-.188.412-.613.234-.937l-.968-1.755zM9.545 8.718c0-.38.302-.69.65-.69.36 0 .65.315.65.69v2.026c0 .38-.302.69-.65.69-.359 0-.65-.315-.65-.69V8.718zM5.023 7.372a.645.645 0 0 1 .891-.256c.311.188.413.613.235.937L5.18 9.808a.645.645 0 0 1-.892.256c-.31-.188-.412-.612-.234-.937l.968-1.755zm-3.527-2.82a.64.64 0 0 1 .924-.039c.262.256.27.694.026.968L1.127 6.964a.64.64 0 0 1-.924.04.712.712 0 0 1-.027-.969l1.32-1.482zM18.686.55H1.636a.691.691 0 0 0-.517 1.15c3.85 4.326 7.319 4.972 9.042 4.972 1.723 0 5.19-.646 9.042-4.972a.691.691 0 0 0-.517-1.15zM10.16 5.626c-3.733 0-7.01-3.23-8.245-4.616-.26-.294-.28-.46-.347-.46h17.233c-.162 0-.136.166-.396.46-1.236 1.386-4.513 4.616-8.245 4.616z"/></g></svg>
