<svg width="21" height="15" viewBox="0 0 21 15" xmlns="http://www.w3.org/2000/svg"><g fill-rule="nonzero" fill="#ffb700"><path d="M19.542 5.972C15.69 1.646 12.223 1 10.5 1c-1.723 0-5.19.646-9.042 4.972a1.808 1.808 0 0 0 0 2.406C5.31 12.704 8.777 13.35 10.5 13.35c1.723 0 5.19-.646 9.042-4.972.61-.689.61-1.717 0-2.406zm-.797 1.715c-1.236 1.387-4.512 4.617-8.245 4.617-3.733 0-7.01-3.23-8.245-4.617a.77.77 0 0 1 0-1.024C3.491 5.276 6.767 2.046 10.5 2.046c3.733 0 7.01 3.23 8.245 4.617a.77.77 0 0 1 0 1.024z"/><path d="M10.474 3.158a4 4 0 1 0 4.021 4 4.01 4.01 0 0 0-4.02-4zm0 7a3 3 0 1 1 3.021-3 3.009 3.009 0 0 1-3.021 3z"/></g></svg>
