<svg xmlns="http://www.w3.org/2000/svg" viewBox="0 0 1000 1000"><metadata> Svg Vector Icons : http:&#x2F;&#x2F;www.onlinewebfonts.com&#x2F;icon </metadata><style> .a{fill:#3681c0;}</style><path class="a" d="M502.3 254.6c-65.6 0-127.2 25.5-173.4 71.8s-71.8 107.8-71.8 173.4 25.5 126.9 71.8 173.4c46.2 46.2 108 71.8 173.4 71.8 65.6 0 127.2-25.5 173.4-71.8s71.8-107.8 71.8-173.4 -25.5-126.9-71.8-173.4C629.5 280.2 567.9 254.6 502.3 254.6zM502.3 704C389.2 704 298 612.4 298 499.7s91.2-204.3 204.3-204.3 204.3 91.7 204.3 204.3S615.4 704 502.3 704zM930.5 397.6h-38.8c-31.7 0-58.2-26.6-58.2-59.2 0-16.3 6.9-30.9 19.2-41.9l25-24.5c24.8-24.5 24.8-64.3 0-89.1l-56.9-56.4c-11.2-11.2-27.8-17.9-44.7-17.9s-33.2 6.6-44.7 17.9l-24 24c-11.5 12.8-27.3 19.7-43.9 19.7 -32.7 0-60.5-26.6-60.5-58l0-38.6c0-34.5-26.8-64.1-61.3-64.1H464c-35.2 0-63.3 29.4-63.3 64.1v38.8c0 31.4-27.1 58-59.7 58 -16.3 0-31.2-6.9-42.4-18.9l-24.8-24.5c-11.2-11.5-27.8-17.9-44.7-17.9s-33.2 6.6-44.7 17.9l-56.9 56.2c-24.5 24.5-24.5 64.6 0 88.9l24 24c12.8 11.5 19.9 26 19.9 42.6 0 32.7-26.6 59.2-58.2 59.2l-38.8 0c-35-0.3-64.3 28.3-64.3 63.1v38.8 38.8c0 34.5 29.4 63.3 64.3 63.3h38.8c31.7 0 58.2 26.6 58.2 59.2 0 16.3-7.1 31.4-19.9 42.9l-24 23.5c-24.5 24.5-24.5 64.3 0 88.9l56.9 56.7c11.2 11.5 27.8 17.9 44.7 17.9s33.2-6.6 44.7-17.9l24.8-24.5c10.7-12 25.8-18.9 42.1-18.9 32.7 0 59.7 26.6 59.7 58v38.8c0 34.5 28.1 64.1 63.1 64.1h77.6c34.7 0 63.6-29.4 63.6-64.1v-38.8c0-31.4 26.8-58 59.5-58 16.3 0 31.4 7.1 43.2 19.7l24 24c11.5 11.2 27.8 17.9 44.7 17.9s33.2-6.6 44.7-17.9l56.9-56.7c24.5-24.5 24.5-64.6 0-89.1l-25-24.5c-12.3-11-19.2-26.6-19.2-42.6 0-32.7 26.6-60.3 58.2-60.3h38.8c34.7 0 59.5-26.3 59.5-61l0-39.3v-38.8C990 426.2 965.2 397.6 930.5 397.6zM949.7 499.7v38.6c0 10.7-5.9 20.2-18.6 20.2h-38.8c-26.3 0-51.3 11.2-70.2 30.6 -18.6 19.2-28.9 44.4-28.9 71 0 27.6 11.2 53.1 31.9 72l24.3 24c8.4 8.7 8.4 23 0 31.4l-56.9 56.7c-4.1 3.8-10 6.1-16.1 6.1s-12.3-2.3-16.1-6.1L737 821c-19.7-20.7-45.5-32.2-72.8-32.2 -26.6 0-51.1 10.2-70.2 28.6 -19.4 18.9-29.6 43.7-29.6 70.2v38.8c0 12.5-11 23.2-22.7 23.2H464c-11.7 0-22.2-10.7-22.2-23.2v-38.8c0-26.3-10.5-51.3-29.9-70.2 -19.2-18.4-44.2-28.6-70.5-28.6 -27.1 0-53.1 11.5-71.8 31.7l-23.7 23.7c-4.1 3.8-10 6.1-16.1 6.1 -6.1 0-12.3-2-15.6-5.6l-0.3-0.3 -0.3-0.3 -56.9-56.7c-8.4-8.4-8.4-22.5 0-31.2l23.2-23c20.9-19.4 32.4-45.2 32.4-72.8 0-26.6-10.2-50.8-28.9-70 -18.9-19.4-43.9-29.4-70.2-29.4l-39.1 0c-12.8 0-23.5-11-23.5-22.5v-39.1 -38.8c0-11.5 10.7-22.5 23.5-22.5h38.8c26.3 0 51.3-10 70.2-29.4 18.6-19.2 28.9-43.9 28.9-70.2 0-27.6-11.5-53.4-32.4-72.5l-23.5-23.2c-5.6-5.6-6.4-12-6.4-15.6 0-3.3 0.8-10 6.4-15.6l56.7-56.4c4.1-3.8 10-6.1 16.1-6.1 6.1 0 12.3 2 15.6 5.6l0.3 0.3 0.3 0.3 24 24c18.9 20.4 44.4 31.7 71.8 31.7 26.6 0 51.3-10.2 70.5-28.6 19.4-18.9 30.1-43.7 30.1-70.2l0-38.8c0-12.5 10.2-23.2 21.7-23.2h77.9c11.5 0 20.4 10.7 20.4 23.2v38.8c0 26.3 11.2 51.3 30.6 70.2 19.2 18.4 44.4 28.6 71 28.6 27.6 0 53.6-11.5 73-32.2l23.2-23.2c4.1-3.8 10-6.1 16.1-6.1s12.3 2.3 16.1 5.9l56.9 56.4c4.1 4.1 6.6 9.7 6.6 15.6 0 5.9-2.3 11.5-6.4 15.6l-24.3 24c-20.4 18.9-31.9 44.4-31.9 72 0 26.6 10.2 50.8 28.9 70 18.9 19.4 43.9 29.4 70.2 29.4h38.8c13.8 0 18.9 12.8 19.2 23L949.7 499.7z"/></svg>