<?xml version="1.0" encoding="UTF-8"?>
<svg width="373px" height="80px" viewBox="0 0 373 80" version="1.1" xmlns="http://www.w3.org/2000/svg" xmlns:xlink="http://www.w3.org/1999/xlink">
    <!-- Generator: Sketch 52.5 (67469) - http://www.bohemiancoding.com/sketch -->
    <title>logo/white</title>
    <desc>Created with Sketch.</desc>
    <g id="logo/white" stroke="none" stroke-width="1" fill="none" fill-rule="evenodd">
        <path d="M58,55.12 L58,25.2 L63.368,25.2 L63.368,50.324 L76.832,50.324 L76.832,55.12 L58,55.12 Z M80.176,28.632 L80.176,23.66 L85.808,23.66 L85.808,28.632 L80.176,28.632 Z M80.352,55.12 L80.352,32.284 L85.632,32.284 L85.632,55.12 L80.352,55.12 Z M101.032,63.656 C95.092,63.656 91.792,61.368 91.528,56.352 L96.456,56.352 C96.676,58.508 98.26,59.388 100.944,59.388 C104.376,59.388 105.872,57.98 105.872,54.548 L105.872,51.424 C104.156,53.404 102.088,54.284 99.36,54.284 C94.08,54.284 91.088,51.028 91.088,44.824 L91.088,41.172 C91.088,34.968 94.08,31.756 99.36,31.756 C102.44,31.756 104.684,32.9 106.488,35.408 L106.664,32.284 L111.152,32.284 L111.152,54.548 C111.152,60.752 107.808,63.656 101.032,63.656 Z M100.372,49.884 C102.836,49.884 104.684,48.388 105.872,45.616 L105.872,40.38 C104.684,37.652 102.836,36.156 100.416,36.156 C97.82,36.156 96.368,37.828 96.368,41.26 L96.368,44.78 C96.368,48.256 97.82,49.884 100.372,49.884 Z M117.576,55.12 L117.576,23 L122.856,23 L122.856,34.616 C124.572,32.636 126.684,31.756 129.324,31.756 C134.076,31.756 136.496,34.572 136.496,40.028 L136.496,55.12 L131.216,55.12 L131.216,40.512 C131.216,37.696 130.16,36.42 128.004,36.42 C125.804,36.42 124.132,37.696 122.856,40.292 L122.856,55.12 L117.576,55.12 Z M149.96,55.12 C145.428,55.12 143.492,52.964 143.492,47.816 L143.492,36.376 L139.884,36.376 L139.884,32.284 L143.58,32.284 L143.932,26.432 L148.772,26.432 L148.772,32.284 L153.92,32.284 L153.92,36.376 L148.772,36.376 L148.772,47.64 C148.772,50.148 149.344,50.852 151.588,50.852 L154.14,50.852 L154.14,55.12 L149.96,55.12 Z M158.144,55.12 L158.144,32.284 L162.632,32.284 L162.808,35.408 C164.656,32.856 166.9,31.756 169.892,31.756 C174.644,31.756 177.064,34.572 177.064,40.028 L177.064,55.12 L171.784,55.12 L171.784,40.512 C171.784,37.696 170.728,36.42 168.528,36.42 C166.372,36.42 164.7,37.696 163.424,40.292 L163.424,55.12 L158.144,55.12 Z M183.048,28.632 L183.048,23.66 L188.68,23.66 L188.68,28.632 L183.048,28.632 Z M183.224,55.12 L183.224,32.284 L188.504,32.284 L188.504,55.12 L183.224,55.12 Z M194.928,55.12 L194.928,32.284 L199.416,32.284 L199.592,35.408 C201.44,32.856 203.684,31.756 206.676,31.756 C211.428,31.756 213.848,34.572 213.848,40.028 L213.848,55.12 L208.568,55.12 L208.568,40.512 C208.568,37.696 207.512,36.42 205.312,36.42 C203.156,36.42 201.484,37.696 200.208,40.292 L200.208,55.12 L194.928,55.12 Z M228.984,63.656 C223.044,63.656 219.744,61.368 219.48,56.352 L224.408,56.352 C224.628,58.508 226.212,59.388 228.896,59.388 C232.328,59.388 233.824,57.98 233.824,54.548 L233.824,51.424 C232.108,53.404 230.04,54.284 227.312,54.284 C222.032,54.284 219.04,51.028 219.04,44.824 L219.04,41.172 C219.04,34.968 222.032,31.756 227.312,31.756 C230.392,31.756 232.636,32.9 234.44,35.408 L234.616,32.284 L239.104,32.284 L239.104,54.548 C239.104,60.752 235.76,63.656 228.984,63.656 Z M228.324,49.884 C230.788,49.884 232.636,48.388 233.824,45.616 L233.824,40.38 C232.636,37.652 230.788,36.156 228.368,36.156 C225.772,36.156 224.32,37.828 224.32,41.26 L224.32,44.78 C224.32,48.256 225.772,49.884 228.324,49.884 Z M257.012,55.12 L257.012,25.2 L268.584,25.2 C275.888,25.2 279.012,28.06 279.012,34.704 C279.012,41.348 275.888,44.12 268.584,44.12 L262.38,44.12 L262.38,55.12 L257.012,55.12 Z M262.38,39.456 L268.144,39.456 C272.104,39.456 273.644,38.092 273.644,34.66 C273.644,31.272 272.104,29.908 268.144,29.908 L262.38,29.908 L262.38,39.456 Z M292.476,55.648 C285.832,55.648 282.312,52.304 282.312,45.924 L282.312,41.436 C282.312,35.144 285.788,31.756 292.212,31.756 C298.724,31.756 302.156,35.188 302.156,41.48 L302.156,45.264 L287.592,45.264 L287.592,45.968 C287.592,49.664 289.088,51.38 292.476,51.38 C295.248,51.38 296.788,50.192 296.964,48.212 L302.024,48.212 C301.76,53.096 298.372,55.648 292.476,55.648 Z M287.592,41.348 L297.14,41.348 C297.14,37.652 295.688,36.024 292.388,36.024 C289.044,36.024 287.592,37.652 287.592,41.348 Z M313.376,55.648 C308.8,55.648 305.984,53.096 305.984,48.608 C305.984,43.9 309.02,41.304 315.224,41.304 L320.064,41.304 L320.064,40.292 C320.064,37.388 318.788,36.024 315.928,36.024 C313.244,36.024 311.88,37.168 311.748,39.324 L306.644,39.324 C306.996,34.308 310.076,31.756 316.104,31.756 C322.396,31.756 325.344,34.484 325.344,40.336 L325.344,55.12 L320.856,55.12 L320.68,52.128 C318.964,54.46 316.588,55.648 313.376,55.648 Z M314.696,51.38 C317.116,51.38 318.92,50.192 320.064,47.904 L320.064,45.088 L315.928,45.088 C312.496,45.088 311.22,46.188 311.22,48.3 C311.22,50.28 312.408,51.38 314.696,51.38 Z M340.172,55.648 C333.748,55.648 330.404,52.348 330.404,45.924 L330.404,41.436 C330.404,35.056 333.748,31.756 340.172,31.756 C346.244,31.756 349.5,34.704 349.632,40.6 L344.572,40.6 C344.396,37.52 343.032,36.156 340.216,36.156 C337.136,36.156 335.684,37.784 335.684,41.524 L335.684,45.88 C335.684,49.62 337.136,51.248 340.216,51.248 C343.032,51.248 344.396,49.884 344.572,46.76 L349.632,46.76 C349.5,52.656 346.244,55.648 340.172,55.648 Z M354.34,55.12 L354.34,23 L359.62,23 L359.62,34.616 C361.336,32.636 363.448,31.756 366.088,31.756 C370.84,31.756 373.26,34.572 373.26,40.028 L373.26,55.12 L367.98,55.12 L367.98,40.512 C367.98,37.696 366.924,36.42 364.768,36.42 C362.568,36.42 360.896,37.696 359.62,40.292 L359.62,55.12 L354.34,55.12 Z" id="Lightning-Peach" fill="#FFFFFF"></path>
        <path d="M39.493265,35.3628277 C40.598216,40.1193984 39.917177,45.2953806 37.2430565,49.9005744 C31.6696558,59.506764 19.744524,62.9037193 9.97647906,57.2749949 C0.201484701,51.643493 -2.78813749,39.643047 2.78526325,30.0382461 C7.9833976,21.0750614 18.8272062,17.5322842 28.2144253,21.802782 C28.3367344,21.8624996 28.4548738,21.9124956 28.5785727,21.9708244 C29.0622494,22.2069169 29.5403665,22.4555085 30.0170938,22.7304869 C30.484092,23.0026878 30.9385813,23.2929427 31.3791718,23.5859753 L31.4514453,23.6359713 C31.2495436,28.4143845 29.8897637,33.0724032 27.4889103,37.2099048 C25.0820292,41.3557088 21.7067805,44.8579016 17.6513715,47.4174361 L14.419911,45.5523049 C21.4070742,41.1447893 26.2370818,34.0242823 27.7460373,25.9066263 C19.9488357,21.626407 10.4337481,24.1428759 5.9527895,31.8658803 C1.41067638,39.693043 4.06533858,49.3895034 11.9236946,53.9183142 C19.7764912,58.4471251 29.5306374,55.9042693 34.0755303,48.0715514 C36.0672219,44.6398766 36.6662582,40.8512854 36.0449838,37.3043418 L39.4946548,35.3628277" id="Path" fill="#d0021b"></path>
        <path d="M58,14.2 L58,4 L62.02,4 C64.33,4 65.38,4.825 65.38,6.655 C65.38,7.78 64.975,8.485 64.015,8.83 L64.015,8.86 C65.215,9.22 65.71,10.015 65.71,11.35 C65.71,13.315 64.66,14.2 62.335,14.2 L58,14.2 Z M59.83,8.215 L61.795,8.215 C63.1,8.215 63.565,7.87 63.565,6.895 C63.565,5.935 63.1,5.59 61.855,5.59 L59.83,5.59 L59.83,8.215 Z M59.83,12.61 L62.035,12.61 C63.385,12.61 63.88,12.22 63.88,11.215 C63.88,10.18 63.355,9.805 61.855,9.805 L59.83,9.805 L59.83,12.61 Z M67.585,14.2 L67.585,4 L69.415,4 L69.415,14.2 L67.585,14.2 Z M73.63,14.2 L73.63,5.635 L70.765,5.635 L70.765,4 L78.325,4 L78.325,5.635 L75.46,5.635 L75.46,14.2 L73.63,14.2 Z M79.675,14.2 L79.675,4 L86.395,4 L86.395,5.605 L81.505,5.605 L81.505,8.245 L85.645,8.245 L85.645,9.85 L81.505,9.85 L81.505,14.2 L79.675,14.2 Z M91.465,14.38 C88.84,14.38 87.715,13.3 87.715,10.81 L87.715,4 L89.545,4 L89.545,10.765 C89.545,12.235 90.07,12.775 91.495,12.775 C92.92,12.775 93.445,12.235 93.445,10.765 L93.445,4 L95.215,4 L95.215,10.81 C95.215,13.3 94.105,14.38 91.465,14.38 Z M97.465,14.2 L97.465,4 L101.515,4 C103.93,4 104.905,4.915 104.905,7.135 C104.905,8.83 104.32,9.76 102.955,10.105 L105.295,14.2 L103.195,14.2 L100.975,10.255 L99.295,10.255 L99.295,14.2 L97.465,14.2 Z M99.295,8.665 L101.335,8.665 C102.625,8.665 103.075,8.23 103.075,7.135 C103.075,6.025 102.625,5.605 101.335,5.605 L99.295,5.605 L99.295,8.665 Z M114.16,4 L110.71,9.865 L110.71,14.2 L108.88,14.2 L108.88,9.895 L105.43,4 L107.53,4 L109.87,8.05 L112.195,4 L114.16,4 Z" id="BITFURY" fill="#FFFFFF"></path>
    </g>
</svg>
