<svg xmlns="http://www.w3.org/2000/svg" width="320" height="80" viewBox="0 0 320 80">
    <g fill="none" fill-rule="evenodd">
        <path fill="#fc1531" d="M39.493 35.363c1.105 4.756.424 9.932-2.25 14.538-5.573 9.606-17.498 13.003-27.267 7.374-9.775-5.632-12.764-17.632-7.19-27.237 5.197-8.963 16.041-12.506 25.428-8.235.123.06.24.11.365.168.483.236.961.485 1.438.76.467.272.922.562 1.362.855l.072.05A29.529 29.529 0 0 1 27.49 37.21a29.71 29.71 0 0 1-9.838 10.207l-3.231-1.865a29.632 29.632 0 0 0 13.326-19.645c-7.797-4.28-17.312-1.764-21.793 5.959-4.542 7.827-1.888 17.524 5.97 22.052 7.853 4.53 17.608 1.986 22.153-5.846 1.991-3.432 2.59-7.22 1.969-10.768l3.45-1.941"/>
        <path fill="#FFF" d="M58 14.2V4h4.02c2.31 0 3.36.825 3.36 2.655 0 1.125-.405 1.83-1.365 2.175v.03c1.2.36 1.695 1.155 1.695 2.49 0 1.965-1.05 2.85-3.375 2.85H58zm1.83-5.985h1.965c1.305 0 1.77-.345 1.77-1.32 0-.96-.465-1.305-1.71-1.305H59.83v2.625zm0 4.395h2.205c1.35 0 1.845-.39 1.845-1.395 0-1.035-.525-1.41-2.025-1.41H59.83v2.805zm7.755 1.59V4h1.83v10.2h-1.83zm6.045 0V5.635h-2.865V4h7.56v1.635H75.46V14.2h-1.83zm6.045 0V4h6.72v1.605h-4.89v2.64h4.14V9.85h-4.14v4.35h-1.83zm11.79.18c-2.625 0-3.75-1.08-3.75-3.57V4h1.83v6.765c0 1.47.525 2.01 1.95 2.01 1.425 0 1.95-.54 1.95-2.01V4h1.77v6.81c0 2.49-1.11 3.57-3.75 3.57zm6-.18V4h4.05c2.415 0 3.39.915 3.39 3.135 0 1.695-.585 2.625-1.95 2.97l2.34 4.095h-2.1l-2.22-3.945h-1.68V14.2h-1.83zm1.83-5.535h2.04c1.29 0 1.74-.435 1.74-1.53 0-1.11-.45-1.53-1.74-1.53h-2.04v3.06zM114.16 4l-3.45 5.865V14.2h-1.83V9.895L105.43 4h2.1l2.34 4.05L112.195 4h1.965zM58.55 55V25.08h11.572c7.304 0 10.428 2.86 10.428 9.504S77.426 44 70.122 44h-6.204v11H58.55zm5.368-15.664h5.764c3.96 0 5.5-1.364 5.5-4.796 0-3.388-1.54-4.752-5.5-4.752h-5.764v9.548zm30.096 16.192c-6.644 0-10.164-3.344-10.164-9.724v-4.488c0-6.292 3.476-9.68 9.9-9.68 6.512 0 9.944 3.432 9.944 9.724v3.784H89.13v.704c0 3.696 1.496 5.412 4.884 5.412 2.772 0 4.312-1.188 4.488-3.168h5.06c-.264 4.884-3.652 7.436-9.548 7.436zm-4.884-14.3h9.548c0-3.696-1.452-5.324-4.752-5.324-3.344 0-4.796 1.628-4.796 5.324zm25.784 14.3c-4.576 0-7.392-2.552-7.392-7.04 0-4.708 3.036-7.304 9.24-7.304h4.84v-1.012c0-2.904-1.276-4.268-4.136-4.268-2.684 0-4.048 1.144-4.18 3.3h-5.104c.352-5.016 3.432-7.568 9.46-7.568 6.292 0 9.24 2.728 9.24 8.58V55h-4.488l-.176-2.992c-1.716 2.332-4.092 3.52-7.304 3.52zm1.32-4.268c2.42 0 4.224-1.188 5.368-3.476v-2.816h-4.136c-3.432 0-4.708 1.1-4.708 3.212 0 1.98 1.188 3.08 3.476 3.08zm25.476 4.268c-6.424 0-9.768-3.3-9.768-9.724v-4.488c0-6.38 3.344-9.68 9.768-9.68 6.072 0 9.328 2.948 9.46 8.844h-5.06c-.176-3.08-1.54-4.444-4.356-4.444-3.08 0-4.532 1.628-4.532 5.368v4.356c0 3.74 1.452 5.368 4.532 5.368 2.816 0 4.18-1.364 4.356-4.488h5.06c-.132 5.896-3.388 8.888-9.46 8.888zM155.878 55V22.88h5.28v11.616c1.716-1.98 3.828-2.86 6.468-2.86 4.752 0 7.172 2.816 7.172 8.272V55h-5.28V40.392c0-2.816-1.056-4.092-3.212-4.092-2.2 0-3.872 1.276-5.148 3.872V55h-5.28zm40.92 0l-7.7-29.92h5.544l5.192 21.824 5.72-21.824h4.972l5.72 21.912 5.236-21.912h5.324l-7.7 29.92h-5.544l-5.588-21.252L202.342 55h-5.544zm39.38.528c-4.576 0-7.392-2.552-7.392-7.04 0-4.708 3.036-7.304 9.24-7.304h4.84v-1.012c0-2.904-1.276-4.268-4.136-4.268-2.684 0-4.048 1.144-4.18 3.3h-5.104c.352-5.016 3.432-7.568 9.46-7.568 6.292 0 9.24 2.728 9.24 8.58V55h-4.488l-.176-2.992c-1.716 2.332-4.092 3.52-7.304 3.52zm1.32-4.268c2.42 0 4.224-1.188 5.368-3.476v-2.816h-4.136c-3.432 0-4.708 1.1-4.708 3.212 0 1.98 1.188 3.08 3.476 3.08zM254.174 55V22.88h5.28V55h-5.28zm11.704 0V22.88h5.28V55h-5.28zm20.9.528c-6.644 0-10.164-3.344-10.164-9.724v-4.488c0-6.292 3.476-9.68 9.9-9.68 6.512 0 9.944 3.432 9.944 9.724v3.784h-14.564v.704c0 3.696 1.496 5.412 4.884 5.412 2.772 0 4.312-1.188 4.488-3.168h5.06c-.264 4.884-3.652 7.436-9.548 7.436zm-4.884-14.3h9.548c0-3.696-1.452-5.324-4.752-5.324-3.344 0-4.796 1.628-4.796 5.324zM309.13 55c-4.532 0-6.468-2.156-6.468-7.304v-11.44h-3.608v-4.092h3.696l.352-5.852h4.84v5.852h5.148v4.092h-5.148V47.52c0 2.508.572 3.212 2.816 3.212h2.552V55h-4.18z"/>
    </g>
</svg>
