<svg width="139" height="46" viewBox="0 0 139 46" xmlns="http://www.w3.org/2000/svg" xmlns:xlink="http://www.w3.org/1999/xlink"><defs><path d="M24.967 10.136c.695 3.004.267 6.272-1.417 9.18-3.509 6.069-11.016 8.213-17.164 4.658C.234 20.417-1.649 12.84 1.86 6.774c3.27-5.661 10.098-7.898 16.007-5.2.077.036.151.068.229.105.305.148.605.306.905.479.295.172.58.355.858.541l.046.031a18.692 18.692 0 0 1-2.495 8.571 18.745 18.745 0 0 1-6.193 6.448l-2.034-1.178a18.704 18.704 0 0 0 6.19-6.446 18.636 18.636 0 0 0 2.2-5.96C12.662 1.461 6.674 3.049 3.853 7.928.994 12.87 2.666 18.994 7.612 21.855c4.944 2.86 11.083 1.254 13.944-3.692 1.255-2.168 1.631-4.56 1.24-6.801l2.171-1.226z" id="a"/><path d="M2.4 35H0V1.078h2.4v5.62C4.367 2.969 8.063.546 12.718.546c6.864 0 12.432 5.475 12.432 12.648S19.583 25.84 12.719 25.84c-4.655 0-8.351-2.421-10.32-6.152V35zM22.75 13.193c0-5.767-4.464-10.322-10.176-10.322C6.864 2.871 2.4 7.426 2.4 13.193c0 5.767 4.465 10.322 10.176 10.322 5.712 0 10.176-4.555 10.176-10.322z" id="c"/><path d="M25.215 1.067v24h-2.448v-5.423c-2.017 3.599-5.711 5.95-10.32 5.95-6.816 0-12.43-5.422-12.43-12.527C.016 5.963 5.63.54 12.446.54c4.609 0 8.303 2.351 10.32 5.951V1.067h2.448zm-2.448 12c0-5.711-4.416-10.223-10.129-10.223-5.71 0-10.174 4.512-10.174 10.223 0 5.712 4.463 10.224 10.174 10.224 5.713 0 10.13-4.512 10.13-10.224z" id="e"/><path d="M.245 13.067C.245 5.963 5.671.54 12.99.54c4.749 0 8.819 2.4 10.564 6.143l-1.988 1.153c-1.405-3.025-4.7-4.992-8.576-4.992-5.864 0-10.274 4.512-10.274 10.223 0 5.712 4.41 10.224 10.274 10.224 3.924 0 7.123-2.017 8.721-4.992l2.037 1.201c-1.94 3.696-6.01 6.094-10.758 6.094-7.319 0-12.745-5.422-12.745-12.527z" id="g"/><path d="M20.815 18.988v15.07h-2.442v-15.07c0-4.46-2.539-7.367-7.04-7.367-4.695 0-8.382 3.101-8.382 9.643v12.795H.557V.136h2.394v14.295c1.82-3.586 4.884-5.136 8.573-5.136 5.698 0 9.29 3.829 9.29 9.693z" id="i"/><path d="M.398.417H.396L.398.373v.044z" id="k"/></defs><g fill="none" fill-rule="evenodd"><g transform="translate(30 11)"><mask id="b" fill="#fff"><use xlink:href="#a"/></mask><path fill="#d0021b" mask="url(#b)" d="M-.856 26.657h26.518V-.527H-.856z"/></g><g transform="translate(0 11)"><mask id="d" fill="#fff"><use xlink:href="#c"/></mask><path fill="#FFF" mask="url(#d)" d="M0 35h25.257V.5H0z"/></g><g transform="translate(59 11)"><mask id="f" fill="#fff"><use xlink:href="#e"/></mask><path fill="#FFF" mask="url(#f)" d="M.016 25.595h25.199V.54H.016z"/></g><g transform="translate(90 11)"><mask id="h" fill="#fff"><use xlink:href="#g"/></mask><path fill="#FFF" mask="url(#h)" d="M.245 25.595h23.504V.54H.245z"/></g><g transform="translate(118 3)"><mask id="j" fill="#fff"><use xlink:href="#i"/></mask><path fill="#FFF" mask="url(#j)" d="M.557 34.059h20.258V.136H.557z"/></g><g transform="translate(54 25)"><mask id="l" fill="#fff"><use xlink:href="#k"/></mask><path fill="#ACD6D2" mask="url(#l)" d="M.396.417h.002V.373H.396z"/></g><path fill="#FFF" d="M0 7V0h1.745v5.42H5V7H0M8 7h2V0H8zM14.133 6.019c-.76-.664-1.133-1.5-1.133-2.52 0-1.028.384-1.864 1.143-2.519.76-.653 1.727-.98 2.893-.98.759 0 1.467.164 2.122.481v1.625c-.666-.337-1.332-.51-1.987-.51-.666 0-1.208.183-1.624.539-.415.355-.624.817-.624 1.395 0 .595.198 1.066.593 1.413.396.345.875.518 1.446.518.49 0 .875-.106 1.155-.316V2.942H20v2.99c-.291.299-.708.548-1.259.76A5.152 5.152 0 0 1 16.962 7c-1.122 0-2.07-.328-2.83-.981M22 7V0h1.732v2.49h2.537V0H28v7h-1.73V4.09h-2.538V7H22M33.097 7V1.58H31V0h6v1.58h-2.106V7h-1.797M40 7V0h1.454l2.886 3.85V0H46v7h-1.406L41.67 3.13V7H40M50 7h2V0h-2zM55 7V0h1.454l2.885 3.85V0H61v7h-1.406l-2.925-3.87V7H55M65.134 6.019c-.76-.664-1.134-1.5-1.134-2.52 0-1.028.384-1.864 1.144-2.519.76-.653 1.727-.98 2.892-.98a4.81 4.81 0 0 1 2.122.481v1.625c-.665-.337-1.331-.51-1.987-.51-.666 0-1.207.183-1.623.539-.417.355-.624.817-.624 1.395 0 .595.198 1.066.593 1.413.396.345.873.518 1.446.518.489 0 .874-.106 1.155-.316V2.942H71v2.99c-.291.299-.708.548-1.258.76a5.155 5.155 0 0 1-1.78.308c-1.123 0-2.07-.328-2.828-.981"/></g></svg>
