<?xml version="1.0" encoding="UTF-8"?>
<svg width="151px" height="25px" viewBox="0 0 151 25" version="1.1" xmlns="http://www.w3.org/2000/svg" xmlns:xlink="http://www.w3.org/1999/xlink">
    <!-- Generator: sketchtool 52.5 (67469) - http://www.bohemiancoding.com/sketch -->
    <title>F10C0A38-32A7-4924-ACD9-6036E4039B82</title>
    <desc>Created with sketchtool.</desc>
    <g id="Website" stroke="none" stroke-width="1" fill="none" fill-rule="evenodd">
        <g id="1.1" transform="translate(-1120.000000, -3253.000000)">
            <g id="Chart/1" transform="translate(170.000000, 3228.000000)">
                <g id="Bitfury_Peach_Logo" transform="translate(950.000000, 24.000000)">
                    <rect id="Background" x="0" y="0" width="150" height="32"></rect>
                    <path d="M23.3243968,22.048 L23.3243968,10.08 L25.4831099,10.08 L25.4831099,20.1296 L30.8975871,20.1296 L30.8975871,22.048 L23.3243968,22.048 Z M32.2423592,11.4528 L32.2423592,9.464 L34.5072386,9.464 L34.5072386,11.4528 L32.2423592,11.4528 Z M32.3131367,22.048 L32.3131367,12.9136 L34.4364611,12.9136 L34.4364611,22.048 L32.3131367,22.048 Z M40.6294906,25.4624 C38.2407507,25.4624 36.9136729,24.5472 36.8075067,22.5408 L38.7892761,22.5408 C38.877748,23.4032 39.5147453,23.7552 40.5941019,23.7552 C41.9742627,23.7552 42.5758713,23.192 42.5758713,21.8192 L42.5758713,20.5696 C41.8857909,21.3616 41.0541555,21.7136 39.9571046,21.7136 C37.8337802,21.7136 36.630563,20.4112 36.630563,17.9296 L36.630563,16.4688 C36.630563,13.9872 37.8337802,12.7024 39.9571046,12.7024 C41.1957105,12.7024 42.0981233,13.16 42.8235925,14.1632 L42.89437,12.9136 L44.6991957,12.9136 L44.6991957,21.8192 C44.6991957,24.3008 43.3544236,25.4624 40.6294906,25.4624 Z M40.3640751,19.9536 C41.3549598,19.9536 42.0981233,19.3552 42.5758713,18.2464 L42.5758713,16.152 C42.0981233,15.0608 41.3549598,14.4624 40.3817694,14.4624 C39.3378016,14.4624 38.7538874,15.1312 38.7538874,16.504 L38.7538874,17.912 C38.7538874,19.3024 39.3378016,19.9536 40.3640751,19.9536 Z M47.2825737,22.048 L47.2825737,9.2 L49.4058981,9.2 L49.4058981,13.8464 C50.0959786,13.0544 50.9453083,12.7024 52.0069705,12.7024 C53.9179625,12.7024 54.8911528,13.8288 54.8911528,16.0112 L54.8911528,22.048 L52.7678284,22.048 L52.7678284,16.2048 C52.7678284,15.0784 52.3431635,14.568 51.4761394,14.568 C50.5914209,14.568 49.9190349,15.0784 49.4058981,16.1168 L49.4058981,22.048 L47.2825737,22.048 Z M60.30563,22.048 C58.4831099,22.048 57.7045576,21.1856 57.7045576,19.1264 L57.7045576,14.5504 L56.2536193,14.5504 L56.2536193,12.9136 L57.7399464,12.9136 L57.8815013,10.5728 L59.827882,10.5728 L59.827882,12.9136 L61.8981233,12.9136 L61.8981233,14.5504 L59.827882,14.5504 L59.827882,19.056 C59.827882,20.0592 60.0579088,20.3408 60.9603217,20.3408 L61.9865952,20.3408 L61.9865952,22.048 L60.30563,22.048 Z M63.5967828,22.048 L63.5967828,12.9136 L65.4016086,12.9136 L65.4723861,14.1632 C66.2155496,13.1424 67.1179625,12.7024 68.3211796,12.7024 C70.2321716,12.7024 71.2053619,13.8288 71.2053619,16.0112 L71.2053619,22.048 L69.0820375,22.048 L69.0820375,16.2048 C69.0820375,15.0784 68.6573727,14.568 67.7726542,14.568 C66.90563,14.568 66.233244,15.0784 65.7201072,16.1168 L65.7201072,22.048 L63.5967828,22.048 Z M73.6117962,11.4528 L73.6117962,9.464 L75.8766756,9.464 L75.8766756,11.4528 L73.6117962,11.4528 Z M73.6825737,22.048 L73.6825737,12.9136 L75.8058981,12.9136 L75.8058981,22.048 L73.6825737,22.048 Z M78.3892761,22.048 L78.3892761,12.9136 L80.1941019,12.9136 L80.2648794,14.1632 C81.0080429,13.1424 81.9104558,12.7024 83.1136729,12.7024 C85.0246649,12.7024 85.9978552,13.8288 85.9978552,16.0112 L85.9978552,22.048 L83.8745308,22.048 L83.8745308,16.2048 C83.8745308,15.0784 83.449866,14.568 82.5651475,14.568 C81.6981233,14.568 81.0257373,15.0784 80.5126005,16.1168 L80.5126005,22.048 L78.3892761,22.048 Z M92.0847185,25.4624 C89.6959786,25.4624 88.3689008,24.5472 88.2627346,22.5408 L90.244504,22.5408 C90.3329759,23.4032 90.9699732,23.7552 92.0493298,23.7552 C93.4294906,23.7552 94.0310992,23.192 94.0310992,21.8192 L94.0310992,20.5696 C93.3410188,21.3616 92.5093834,21.7136 91.4123324,21.7136 C89.289008,21.7136 88.0857909,20.4112 88.0857909,17.9296 L88.0857909,16.4688 C88.0857909,13.9872 89.289008,12.7024 91.4123324,12.7024 C92.6509383,12.7024 93.5533512,13.16 94.2788204,14.1632 L94.3495979,12.9136 L96.1544236,12.9136 L96.1544236,21.8192 C96.1544236,24.3008 94.8096515,25.4624 92.0847185,25.4624 Z M91.8193029,19.9536 C92.8101877,19.9536 93.5533512,19.3552 94.0310992,18.2464 L94.0310992,16.152 C93.5533512,15.0608 92.8101877,14.4624 91.8369973,14.4624 C90.7930295,14.4624 90.2091153,15.1312 90.2091153,16.504 L90.2091153,17.912 C90.2091153,19.3024 90.7930295,19.9536 91.8193029,19.9536 Z M103.356032,22.048 L103.356032,10.08 L108.009651,10.08 C110.946917,10.08 112.203217,11.224 112.203217,13.8816 C112.203217,16.5392 110.946917,17.648 108.009651,17.648 L105.514745,17.648 L105.514745,22.048 L103.356032,22.048 Z M105.514745,15.7824 L107.832708,15.7824 C109.425201,15.7824 110.044504,15.2368 110.044504,13.864 C110.044504,12.5088 109.425201,11.9632 107.832708,11.9632 L105.514745,11.9632 L105.514745,15.7824 Z M117.617694,22.2592 C114.945845,22.2592 113.530295,20.9216 113.530295,18.3696 L113.530295,16.5744 C113.530295,14.0576 114.92815,12.7024 117.511528,12.7024 C120.130295,12.7024 121.510456,14.0752 121.510456,16.592 L121.510456,18.1056 L115.653619,18.1056 L115.653619,18.3872 C115.653619,19.8656 116.255228,20.552 117.617694,20.552 C118.73244,20.552 119.351743,20.0768 119.42252,19.2848 L121.457373,19.2848 C121.351206,21.2384 119.98874,22.2592 117.617694,22.2592 Z M115.653619,16.5392 L119.493298,16.5392 C119.493298,15.0608 118.909383,14.4096 117.582306,14.4096 C116.237534,14.4096 115.653619,15.0608 115.653619,16.5392 Z M126.02252,22.2592 C124.182306,22.2592 123.049866,21.2384 123.049866,19.4432 C123.049866,17.56 124.270777,16.5216 126.765684,16.5216 L128.712064,16.5216 L128.712064,16.1168 C128.712064,14.9552 128.198928,14.4096 127.048794,14.4096 C125.969437,14.4096 125.420912,14.8672 125.367828,15.7296 L123.315282,15.7296 C123.456836,13.7232 124.695442,12.7024 127.119571,12.7024 C129.649866,12.7024 130.835389,13.7936 130.835389,16.1344 L130.835389,22.048 L129.030563,22.048 L128.959786,20.8512 C128.269705,21.784 127.314209,22.2592 126.02252,22.2592 Z M126.553351,20.552 C127.526542,20.552 128.252011,20.0768 128.712064,19.1616 L128.712064,18.0352 L127.048794,18.0352 C125.668633,18.0352 125.155496,18.4752 125.155496,19.32 C125.155496,20.112 125.633244,20.552 126.553351,20.552 Z M136.798391,22.2592 C134.215013,22.2592 132.870241,20.9392 132.870241,18.3696 L132.870241,16.5744 C132.870241,14.0224 134.215013,12.7024 136.798391,12.7024 C139.240214,12.7024 140.549598,13.8816 140.602681,16.24 L138.567828,16.24 C138.497051,15.008 137.948525,14.4624 136.816086,14.4624 C135.57748,14.4624 134.993566,15.1136 134.993566,16.6096 L134.993566,18.352 C134.993566,19.848 135.57748,20.4992 136.816086,20.4992 C137.948525,20.4992 138.497051,19.9536 138.567828,18.704 L140.602681,18.704 C140.549598,21.0624 139.240214,22.2592 136.798391,22.2592 Z M142.495979,22.048 L142.495979,9.2 L144.619303,9.2 L144.619303,13.8464 C145.309383,13.0544 146.158713,12.7024 147.220375,12.7024 C149.131367,12.7024 150.104558,13.8288 150.104558,16.0112 L150.104558,22.048 L147.981233,22.048 L147.981233,16.2048 C147.981233,15.0784 147.556568,14.568 146.689544,14.568 C145.804826,14.568 145.13244,15.0784 144.619303,16.1168 L144.619303,22.048 L142.495979,22.048 Z" id="Lightning-Peach" fill="#000000"></path>
                    <path d="M15.88201,14.1451311 C16.3263603,16.0477594 16.052484,18.1181523 14.9771005,19.9602297 C12.7357865,23.8027056 7.94015712,25.1614877 4.0119889,22.909998 C0.0810260193,20.6573972 -1.12123492,15.8572188 1.12007905,12.0152984 C3.21048161,8.43002457 7.57126255,7.01291369 11.3462836,8.72111281 C11.3954696,8.74499982 11.4429787,8.76499825 11.4927236,8.78832975 C11.6872316,8.88276678 11.879504,8.98220341 12.0712174,9.09219477 C12.2590182,9.2010751 12.4417887,9.31717709 12.6189699,9.4343901 L12.6480343,9.45438853 C12.5668406,11.3657538 12.0200122,13.2289613 11.0545216,14.8839619 C10.0866069,16.5422835 8.72926828,17.9431606 7.09840679,18.9669744 L5.79889183,18.220922 C8.60874298,16.4579157 10.5511053,13.6097129 11.1579238,10.3626505 C8.02232,8.6505628 4.19587725,9.65715038 2.39388318,12.7463521 C0.567296132,15.8772172 1.63485466,19.7558014 4.79505146,21.5673257 C7.95301254,23.37885 11.8755914,22.3617077 13.7032964,19.2286206 C14.5042447,17.8559506 14.745144,16.3405141 14.4953018,14.9217367 L15.882569,14.1451311" id="Path" fill="#F70"></path>
                    <path d="M23.3243968,5.68 L23.3243968,1.6 L24.9410188,1.6 C25.8699732,1.6 26.2922252,1.93 26.2922252,2.662 C26.2922252,3.112 26.1293566,3.394 25.7432976,3.532 L25.7432976,3.544 C26.2258713,3.688 26.424933,4.006 26.424933,4.54 C26.424933,5.326 26.002681,5.68 25.0676944,5.68 L23.3243968,5.68 Z M24.0603217,3.286 L24.8505362,3.286 C25.3753351,3.286 25.5623324,3.148 25.5623324,2.758 C25.5623324,2.374 25.3753351,2.236 24.8746649,2.236 L24.0603217,2.236 L24.0603217,3.286 Z M24.0603217,5.044 L24.9470509,5.044 C25.4899464,5.044 25.689008,4.888 25.689008,4.486 C25.689008,4.072 25.477882,3.922 24.8746649,3.922 L24.0603217,3.922 L24.0603217,5.044 Z M27.1789544,5.68 L27.1789544,1.6 L27.9148794,1.6 L27.9148794,5.68 L27.1789544,5.68 Z M29.6099196,5.68 L29.6099196,2.254 L28.4577748,2.254 L28.4577748,1.6 L31.4979893,1.6 L31.4979893,2.254 L30.3458445,2.254 L30.3458445,5.68 L29.6099196,5.68 Z M32.0408847,5.68 L32.0408847,1.6 L34.7432976,1.6 L34.7432976,2.242 L32.7768097,2.242 L32.7768097,3.298 L34.441689,3.298 L34.441689,3.94 L32.7768097,3.94 L32.7768097,5.68 L32.0408847,5.68 Z M36.7821716,5.752 C35.7265416,5.752 35.2741287,5.32 35.2741287,4.324 L35.2741287,1.6 L36.0100536,1.6 L36.0100536,4.306 C36.0100536,4.894 36.2211796,5.11 36.7942359,5.11 C37.3672922,5.11 37.5784182,4.894 37.5784182,4.306 L37.5784182,1.6 L38.2902145,1.6 L38.2902145,4.324 C38.2902145,5.32 37.8438338,5.752 36.7821716,5.752 Z M39.1950402,5.68 L39.1950402,1.6 L40.8237265,1.6 C41.7949062,1.6 42.1869973,1.966 42.1869973,2.854 C42.1869973,3.532 41.9517426,3.904 41.402815,4.042 L42.3438338,5.68 L41.4993298,5.68 L40.6065684,4.102 L39.9309651,4.102 L39.9309651,5.68 L39.1950402,5.68 Z M39.9309651,3.466 L40.7513405,3.466 C41.2701072,3.466 41.4510724,3.292 41.4510724,2.854 C41.4510724,2.41 41.2701072,2.242 40.7513405,2.242 L39.9309651,2.242 L39.9309651,3.466 Z M45.9088472,1.6 L44.5214477,3.946 L44.5214477,5.68 L43.7855228,5.68 L43.7855228,3.958 L42.3981233,1.6 L43.2426273,1.6 L44.1836461,3.22 L45.1186327,1.6 L45.9088472,1.6 Z" id="BITFURY" fill="#000000"></path>
                </g>
            </g>
        </g>
    </g>
</svg>
