<svg width="20" height="20" viewBox="0 0 20 20" xmlns="http://www.w3.org/2000/svg"><g fill-rule="nonzero" fill="#D0021B"><path d="M10.927 14.19a.959.959 0 0 0 .634.239.998.998 0 0 0 .732-.334l3.073-3.476a.925.925 0 0 0 0-1.238l-3.073-3.476a.962.962 0 0 0-1.366-.095.909.909 0 0 0-.098 1.333l1.683 1.905h-6.17a.967.967 0 0 0-.976.952c0 .524.439.952.975.952h6.171l-1.683 1.905a.907.907 0 0 0 .098 1.333z"/><path d="M18.024 6.929c.196.476.78.714 1.269.523a.959.959 0 0 0 .536-1.238C18.244 2.43 14.512 0 10.341 0 4.683 0 .098 4.476.098 10S4.683 20 10.34 20c4.171 0 7.903-2.429 9.488-6.214a.939.939 0 0 0-.536-1.238c-.488-.19-1.073.023-1.269.523-1.292 3.048-4.292 5.024-7.683 5.024-4.56 0-8.292-3.643-8.292-8.095 0-4.452 3.731-8.095 8.292-8.095 3.39 0 6.39 1.976 7.683 5.024z"/></g></svg>