<svg width="33" height="33" viewBox="0 0 33 33" xmlns="http://www.w3.org/2000/svg"><g fill="#fff"><path d="M23.9 5.814a15.56 15.56 0 0 1 .9.986c.044.056.089.112.137.167.022.03.044.056.067.086.119.152-.019-.056-.049-.063.034.003.108.145.13.17l.127.172a14.772 14.772 0 0 1 .717 1.112c.149.257.29.517.42.785.063.123.123.25.178.376.03.063.056.127.086.19.015.033.026.063.04.097.071.16-.081-.198-.033-.082.216.524.405 1.06.558 1.61.17.618.297 1.247.382 1.883-.01-.093-.026-.186-.037-.275.16 1.216.16 2.452 0 3.668.011-.093.026-.186.037-.275a13.885 13.885 0 0 1-.862 3.3l-.078.193c-.048.12.097-.223.045-.104l-.041.097c-.06.134-.119.268-.186.402-.122.26-.256.517-.397.766-.287.517-.61 1.016-.963 1.488-.019.026-.097.168-.13.171l.063-.081c-.022.03-.044.055-.067.085-.089.112-.182.223-.275.335a13.617 13.617 0 0 1-1.947 1.886c-.063.052-.271.197 0 .004-.06.04-.115.085-.171.13-.123.09-.245.179-.368.264a13.889 13.889 0 0 1-2.263 1.269l-.097.04c-.185.083.246-.1.056-.021l-.215.089a13.458 13.458 0 0 1-1.368.458 14.3 14.3 0 0 1-1.88.383l.275-.038c-1.216.16-2.45.16-3.665 0l.275.038a13.844 13.844 0 0 1-3.49-.942 1.25 1.25 0 0 0 .105.045l-.097-.04c-.134-.06-.267-.12-.401-.187-.26-.123-.517-.257-.766-.398a13.399 13.399 0 0 1-1.49-.964c-.026-.018-.167-.096-.17-.13l.081.063c-.03-.022-.056-.044-.085-.067-.112-.089-.223-.182-.335-.275a14.14 14.14 0 0 1-1.892-1.953c-.052-.063-.196-.272-.003 0a2.957 2.957 0 0 0-.13-.171c-.09-.123-.179-.246-.264-.369a13.916 13.916 0 0 1-1.267-2.266l-.041-.096c-.082-.186.1.246.022.056l-.09-.216a10.122 10.122 0 0 1-.17-.461 14.08 14.08 0 0 1-.669-2.79c.011.092.026.185.037.275a14.095 14.095 0 0 1 0-3.669c-.011.093-.026.186-.037.276.152-1.131.439-2.24.862-3.3l.078-.194a1.539 1.539 0 0 0-.044.104l.04-.096c.06-.134.12-.268.186-.402.123-.26.257-.517.398-.767.286-.517.61-1.015.962-1.488.019-.026.097-.167.13-.17l-.063.081c.023-.03.045-.056.067-.086a15.593 15.593 0 0 1 .896-1.02c.416-.43.862-.832 1.33-1.208.063-.052.272-.197 0-.004.06-.04.115-.085.171-.13.123-.09.245-.179.368-.264a13.889 13.889 0 0 1 2.263-1.269l.097-.04c.186-.083-.245.1-.056.022l.216-.09c.152-.06.304-.119.46-.17.301-.109.603-.202.907-.287a14.037 14.037 0 0 1 1.88-.383c-.092.01-.185.026-.274.037 1.215-.16 2.449-.16 3.664 0-.093-.011-.186-.026-.275-.037a14.017 14.017 0 0 1 3.467.93c.152.06-.1-.041-.104-.045.026.019.067.03.097.04.14.064.286.127.427.194.26.123.517.257.766.398a13.504 13.504 0 0 1 1.66 1.09c-.282-.2-.022-.018.045.038.127.1.25.204.376.312.256.238.509.476.754.722.386.387 1.093.417 1.472 0s.412-1.064 0-1.473C23.224 2.198 20.422.71 17.426.21a15.133 15.133 0 0 0-8.906 1.2C5.73 2.704 3.364 4.939 1.874 7.626.44 10.212-.218 13.244.064 16.19a15.073 15.073 0 0 0 3.55 8.393 14.828 14.828 0 0 0 7.68 4.73c2.877.702 5.984.55 8.756-.503a15.113 15.113 0 0 0 7.24-5.782c1.642-2.481 2.493-5.491 2.43-8.467-.067-2.995-1.037-5.983-2.81-8.401-.472-.64-.977-1.25-1.538-1.812-.387-.387-1.093-.413-1.472 0-.383.41-.412 1.053 0 1.466z"/><path d="M23.921 25.388l2.464 2.467c1.308 1.31 2.616 2.615 3.924 3.925l.892.893c.387.387 1.093.413 1.472 0 .383-.417.412-1.06 0-1.474l-2.464-2.466c-1.308-1.31-2.616-2.616-3.924-3.925l-.892-.893c-.387-.387-1.093-.413-1.472 0-.382.413-.412 1.06 0 1.473zM11.513 10.682h4.135c.252 0 .51-.012.76.018-.075-.009-.151-.02-.224-.03.122.018.243.042.36.076.052.015.104.033.155.052.143.048-.151-.073-.072-.03.024.011.048.02.072.033.11.054.206.118.31.182.027.018.108.082-.007-.006-.12-.094-.02-.015.006.009.046.04.088.079.13.121.037.037.073.076.11.116.018.021.054.048.063.076-.003-.01-.124-.173-.06-.076.066.1.13.2.185.307a.767.767 0 0 1 .033.072c.06.122-.064-.17-.03-.072l.054.151c.04.125.064.253.082.38l-.03-.225c.024.198.024.392 0 .59.009-.076.02-.152.03-.225a2.321 2.321 0 0 1-.082.376c-.015.052-.036.104-.054.158-.025.061-.01.03.039-.094-.012.028-.027.058-.04.085a2.63 2.63 0 0 1-.193.32c-.085.127.13-.147.018-.025-.043.046-.082.094-.127.137-.043.042-.091.085-.137.127-.124.116.167-.112.025-.018a3.07 3.07 0 0 1-.319.194c-.027.016-.057.028-.084.04.039-.015.078-.034.115-.049-.052.03-.121.046-.179.064a2.675 2.675 0 0 1-.376.082c.076-.009.152-.021.225-.03-.4.048-.819.018-1.221.018h-2.133c-.443 0-.87.392-.849.85.022.462.373.85.849.85h2.45c.446 0 .88.013 1.319-.081 1.072-.234 1.93-1.078 2.28-2.105.307-.902.15-1.996-.417-2.764-.588-.802-1.448-1.294-2.448-1.349-.24-.012-.485-.003-.724-.003h-1.46c-.834 0-1.667-.009-2.497 0h-.045c-.443 0-.87.392-.849.85.025.46.376.848.852.848z"/><path d="M13.055 15.284h2.787c.19 0 .379-.003.567.018-.076-.009-.152-.021-.225-.03a2.707 2.707 0 0 1 .515.127c.143.049-.151-.073-.072-.03l.072.033c.11.055.206.119.31.183.027.018.108.082-.007-.007-.12-.094-.02-.015.006.01.046.04.088.079.13.121.037.037.073.076.11.116.018.02.054.048.063.075-.003-.009-.124-.173-.06-.075.066.1.13.2.185.306a.778.778 0 0 1 .033.073c.06.122-.064-.17-.03-.073l.054.152c.04.125.064.252.082.38l-.03-.225c.024.198.024.392 0 .59.009-.077.02-.153.03-.225a2.321 2.321 0 0 1-.082.376c-.015.052-.036.103-.054.158-.025.06-.01.03.039-.094l-.04.085a2.63 2.63 0 0 1-.193.319c-.085.128.13-.146.018-.024-.043.045-.082.094-.127.136-.043.043-.091.085-.137.128-.124.115.167-.112.025-.018a3.07 3.07 0 0 1-.319.194c-.027.015-.057.027-.084.04l.115-.049c-.052.03-.121.046-.179.064a2.675 2.675 0 0 1-.376.082l.225-.03c-.222.027-.446.018-.67.018h-4.23c-.442 0-.869.391-.848.85.021.462.373.85.849.85h2.135c.812 0 1.627.004 2.44 0 .875-.002 1.757-.364 2.344-1.026.712-.805 1.006-1.92.712-2.968-.242-.865-.875-1.643-1.7-2.007a3.296 3.296 0 0 0-1.33-.301h-3.059c-.442 0-.869.392-.848.85.028.46.38.848.855.848z"/><path d="M12.206 8.264v10.814c0 .5-.012 1.002 0 1.503v.021c0 .444.39.872.847.85.46-.02.847-.373.847-.85V9.79c0-.501.012-1.002 0-1.503v-.022c0-.443-.39-.871-.847-.85-.457.021-.847.373-.847.85zm2.594 0v1.568c0 .443.39.871.848.85.46-.021.848-.373.848-.85V8.264c0-.443-.39-.871-.848-.85-.46.021-.848.373-.848.85zm0 10.771v1.567c0 .444.39.872.848.85.46-.02.848-.373.848-.85v-1.567c0-.443-.39-.872-.848-.85-.46.02-.848.373-.848.85z"/></g></svg>