<?xml version="1.0" encoding="UTF-8"?>
<svg width="11px" height="18px" viewBox="0 0 11 18" version="1.1" xmlns="http://www.w3.org/2000/svg" xmlns:xlink="http://www.w3.org/1999/xlink">
    <!-- Generator: Sketch 52 (66869) - http://www.bohemiancoding.com/sketch -->
    <title>baseline-attach_money-24px</title>
    <desc>Created with Sketch.</desc>
    <g id="v-2.0-Stream-payment" stroke="none" stroke-width="1" fill="none" fill-rule="evenodd">
        <g id="2.0-Stream-payment-_01" transform="translate(-825.000000, -690.000000)">
            <g id="Group-Copy-2" transform="translate(810.000000, 683.000000)">
                <g id="baseline-attach_money-24px" transform="translate(8.000000, 4.000000)">
                    <polygon id="Shape" points="0 0 24 0 24 24 0 24"></polygon>
                    <path d="M12.48,10.9 C10.21,10.31 9.48,9.7 9.48,8.75 C9.48,7.66 10.49,6.9 12.18,6.9 C13.96,6.9 14.62,7.75 14.68,9 L16.89,9 C16.82,7.28 15.77,5.7 13.68,5.19 L13.68,3 L10.68,3 L10.68,5.16 C8.74,5.58 7.18,6.84 7.18,8.77 C7.18,11.08 9.09,12.23 11.88,12.9 C14.38,13.5 14.88,14.38 14.88,15.31 C14.88,16 14.39,17.1 12.18,17.1 C10.12,17.1 9.31,16.18 9.2,15 L7,15 C7.12,17.19 8.76,18.42 10.68,18.83 L10.68,21 L13.68,21 L13.68,18.85 C15.63,18.48 17.18,17.35 17.18,15.3 C17.18,12.46 14.75,11.49 12.48,10.9 Z" id="Shape" fill="#ffb700" fill-rule="nonzero"></path>
                </g>
            </g>
        </g>
    </g>
</svg>
