<svg width="342" height="394" viewBox="0 0 342 394" xmlns="http://www.w3.org/2000/svg" xmlns:xlink="http://www.w3.org/1999/xlink"><defs><path d="M2 0h330a2 2 0 0 1 2 2v381.683a2 2 0 0 1-2.933 1.77l-24.602-12.98a1.992 1.992 0 0 0-1.78-.044l-25.167 11.774a4.002 4.002 0 0 1-3.402-.006l-24.993-11.788a1.996 1.996 0 0 0-1.705 0l-25.048 11.787c-1.08.51-2.33.508-3.41-.002l-24.982-11.79a2.002 2.002 0 0 0-1.692-.006L168.7 384.214a3.997 3.997 0 0 1-3.392-.02l-24.805-11.78a1.995 1.995 0 0 0-1.714-.002L113.89 384.19a3.997 3.997 0 0 1-3.422 0l-24.886-11.78a2.004 2.004 0 0 0-1.707 0L58.832 384.2a3.997 3.997 0 0 1-3.4.003l-25.15-11.78a1.998 1.998 0 0 0-1.756.03L2.91 385.516A2.004 2.004 0 0 1 0 383.733V2a2 2 0 0 1 2-2z" id="b"/><filter x="-2.1%" y="-1.3%" width="104.2%" height="103.6%" filterUnits="objectBoundingBox" id="a"><feOffset dy="2" in="SourceAlpha" result="shadowOffsetOuter1"/><feGaussianBlur stdDeviation="2" in="shadowOffsetOuter1" result="shadowBlurOuter1"/><feColorMatrix values="0 0 0 0 0.691326531 0 0 0 0 0.691326531 0 0 0 0 0.691326531 0 0 0 0.5 0" in="shadowBlurOuter1"/></filter></defs><g transform="translate(4 2)" fill="none" fill-rule="evenodd"><use fill="#000" filter="url(#a)" xlink:href="#b"/><use fill="#FFF" xlink:href="#b"/></g></svg>