<svg width="14" height="16" viewBox="0 0 14 16" xmlns="http://www.w3.org/2000/svg"><path d="M9.76 2.974a7.423 7.423 0 0 0-5.646.064L5.032.604A.43.43 0 0 0 4.96.162a.469.469 0 0 0-.789.134l-1.343 3.51a.488.488 0 0 0 .039.376.444.444 0 0 0 .206.184l3.472 1.638a.467.467 0 0 0 .602-.211.435.435 0 0 0-.202-.586l-2.696-1.26c1.35-.605 3.274-.922 5.139-.158 1.576.638 2.79 1.899 3.334 3.46a5.931 5.931 0 0 1-.092 4.28c-1.148 2.623-4.661 4.504-8.037 3.121-2.119-.87-3.49-2.76-3.673-5.054a.455.455 0 0 0-.493-.411.45.45 0 0 0-.426.475c.202 2.631 1.78 4.802 4.223 5.802a7.078 7.078 0 0 0 2.71.538c2.827-.03 5.38-1.638 6.54-4.123a6.716 6.716 0 0 0 .116-4.915c-.625-1.797-2.02-3.25-3.83-3.988z" fill-rule="nonzero" fill="#ffb700"/></svg>
