<svg width="33" height="33" viewBox="0 0 33 33" xmlns="http://www.w3.org/2000/svg"><g fill-rule="nonzero" fill="#000"><path d="M16.5 8.721c-4.29 0-7.779 3.489-7.779 7.779s3.489 7.779 7.779 7.779 7.779-3.489 7.779-7.779S20.79 8.721 16.5 8.721zm.002 13.776c-3.287 0-6-2.713-6-6s2.713-6 6-6 6 2.713 6 6-2.713 6-6 6z"/><path d="M29.511 6.411L26.59 3.49c-.99-.99-2.593-1.132-3.678-.283L21.64 4.1l-.236-1.508A2.8 2.8 0 0 0 18.62.14H14.52a2.798 2.798 0 0 0-2.781 2.405L11.456 4.1l-1.273-.895c-1.132-.849-2.734-.755-3.724.235L3.536 6.364c-.99.99-1.132 2.593-.283 3.677l.896 1.273-1.509.236a2.8 2.8 0 0 0-2.451 2.781v4.102a2.798 2.798 0 0 0 2.404 2.781l1.556.283-.896 1.273c-.849 1.131-.754 2.734.236 3.724l2.922 2.923a2.934 2.934 0 0 0 2.028.849c.612 0 1.225-.189 1.697-.566l1.273-.896.235 1.509a2.8 2.8 0 0 0 2.782 2.451h4.101a2.798 2.798 0 0 0 2.782-2.404l.282-1.556 1.273.896c.472.377 1.085.566 1.697.566.755 0 1.462-.283 1.98-.849l2.923-2.923c.99-.99 1.132-2.593.283-3.677l-.896-1.273 1.509-.235a2.8 2.8 0 0 0 2.451-2.782v-4.101a2.798 2.798 0 0 0-2.404-2.782l-1.556-.283.896-1.272c.849-1.085.754-2.688-.236-3.678zm1.097 7.411h.048c.196.049.391.244.391.488v4.249c0 .244-.195.44-.44.488h-.048l-3.516.586c-.391.05-.782.342-.928.733-.147.39-.098.83.146 1.172l2.1 2.93s0 .049.049.049c.147.195.098.44-.049.635l-3.028 3.027c-.146.147-.293.147-.341.147-.098 0-.196 0-.293-.098 0 0-.05 0-.05-.049l-2.93-2.05a1.255 1.255 0 0 0-1.171-.147 1.12 1.12 0 0 0-.733.928l-.586 3.565v.048a.526.526 0 0 1-.488.391h-4.249c-.244 0-.44-.195-.488-.44v-.048l-.586-3.516a1.189 1.189 0 0 0-.733-.928 1.445 1.445 0 0 0-.488-.098c-.244 0-.488.098-.684.244l-2.93 2.1s-.049 0-.049.05c-.097.048-.195.097-.244.097a.443.443 0 0 1-.342-.147l-3.076-3.027a.46.46 0 0 1-.049-.635s0-.05.049-.05l2.05-2.93c.245-.341.294-.78.147-1.171a1.12 1.12 0 0 0-.927-.733l-3.565-.586h-.05a.526.526 0 0 1-.39-.488v-4.249c0-.244.195-.44.44-.488h.048l3.517-.586c.39-.049.78-.342.927-.733.147-.39.098-.83-.146-1.172l-2.1-2.93s0-.049-.049-.049c-.146-.195-.098-.439.049-.634l3.028-3.028a.46.46 0 0 1 .635-.049s.048 0 .048.049l2.93 2.05c.342.245.782.294 1.172.147a1.12 1.12 0 0 0 .733-.927l.586-3.565v-.05a.526.526 0 0 1 .488-.39h4.249c.244 0 .44.195.488.44v.049l.586 3.516c.05.39.342.78.733.927.39.147.83.098 1.172-.146l2.93-2.1s.049 0 .049-.049c.195-.146.44-.097.635.05l3.027 3.027a.46.46 0 0 1 .05.635s0 .048-.05.048l-2.05 2.93a1.255 1.255 0 0 0-.147 1.173c.146.39.488.683.928.732l3.565.586z"/></g></svg>